<mxfile host="app.diagrams.net" agent="Mozilla/5.0 (Macintosh; Intel Mac OS X 10_15_7) AppleWebKit/537.36 (KHTML, like Gecko) Chrome/128.0.0.0 Safari/537.36" version="24.7.17">
  <diagram name="Page-1" id="Es4UJARGdaxGi_ZLoBt0">
    <mxGraphModel dx="636" dy="403" grid="1" gridSize="10" guides="1" tooltips="1" connect="1" arrows="1" fold="1" page="1" pageScale="1" pageWidth="827" pageHeight="1169" math="0" shadow="0">
      <root>
        <mxCell id="0" />
        <mxCell id="1" parent="0" />
        <mxCell id="qe19Klz4tE8ld2L98A2y-35" value="" style="rounded=1;arcSize=10;dashed=0;fillColor=none;gradientColor=none;strokeWidth=2;" parent="1" vertex="1">
          <mxGeometry x="157.58" y="171.4" width="552.42" height="188" as="geometry" />
        </mxCell>
        <mxCell id="qe19Klz4tE8ld2L98A2y-9" value="BUILD" style="dashed=0;html=1;rounded=1;fillColor=#DFE1E6;strokeColor=#DFE1E6;fontSize=12;align=center;fontStyle=1;strokeWidth=2;fontColor=#42526E" parent="1" vertex="1">
          <mxGeometry x="250" y="256" width="60" height="20" as="geometry" />
        </mxCell>
        <mxCell id="qe19Klz4tE8ld2L98A2y-12" value="" style="shape=image;imageAspect=0;aspect=fixed;verticalLabelPosition=bottom;verticalAlign=top;image=data:image/png,iVBORw0KGgoAAAANSUhEUgAAAooAAAFuCAYAAAAGSTmFAAAACXBIWXMAAA7EAAAOxAGVKw4bAAAgAElEQVR42uy9f7B9d1nf+3rWnPlOJpNJM7m5Md2Hm6ZpmjJppGlKI1qKiBUpWkGlYEFpEa1aZR8YpNRLLcNFikotnp0qigXxB4gIiIitIgh4KwICYkpzuWluhqE5u5lMJpP5NpP5TuY767l/7H3OWeuzPj/Xj3P2Pt/nmTlz9l57rc+P9+fHej7P5/O8HzAxMTExMTExMTHxiAAVUK//H0rze73+XwXSqBtpNCU3veb32vMfz++hdH3P5uRLDwxy6kSg/KHfycS4SuAea7M6Uc7ccvvaI5Xm2BiE8sy9j0C9CFwj0c8pyCunXBTcYxhsDwZjS5U5xn3lz61THcApVaaTqL9hYBgYBhNiIBkKIAGFgILfYkpYqvBVIo8+0ie9VB1KnyWg5KY6ZUwRrAs7e+xF3Le9chTUMTAoabccRZQMbHLrOqRflijNhsHZwCB33ObOQbHrJYuznAV16sVZGQaGgWGw3RjIyJP8GAqZiYmJiYmJiYmJiYmJiYmJiYmJyVmQasvSPSv4VWcIJ8PAxMTExMRki2SHvHOI7gs7dX7Rd7YwdM4s5JACYUcVEtdJpJ1zFiF1r895JoZDTFmK4eQqSvUI6eDcQ+a9VUa6IVymwCBWzlD98OQBZedPcsdD7hldCDtSVJSdJzUMtg+DOtK3c5zuYvXypRua23PGeJ14PtV+hoFhYBhsJwYmJiYmJiYmJiYmcQ0ydM239Vf1fDZ3GzH2XOgPz3ciz5OZlu9zqmw5eFUD2yWWVjVSWiV5jZHWVBjk4FPyTB8MqgHY93neMNhMDErmx5x5c4x695nDGVAvw8AwMAy2BIOpvZ5NTExMTExMTEy2WHIsgzGrW6mG2ldTTpXTl8/QsuauKkrKRQRjAuVNPV/SxmM9M8TKPCYG1QQYVBPhWoJpSV0Ng+3CgB5ja1veI5VhYBgYBmcLg51AYXKIZt2C1yO8zMlILwZa6rDpYd3qzHKWsrf34Y2sEtjWGW3jliUUxSWnrepA3dx0c36rJsQgdV9OFBkiz8WcZnKwjmFeQjBfFWJtGGw+Bjkk3qmoS7HvuQfiSZQ3RShMIv8SYmDDwDAwDDYbg+KXe8mqvhohjT5a9RAqlrO+HV+d8HObWJezVH7DwI7QmJiYmEwiQlnIFwbeO1Q2IZTfFPXJoZmBNMVQSZjB0jZmoj4xNgY56UJ+GEQSGFNwLXWdDAuVYXC2MIjRSFFQ9hx6qZIQm7ntVI2IpWFgGBgGm4uBWX5MrL1NTExMTExM/C/zqvAP4hQzvt9z8kzdm/u8m0ZFOb1O6tkcDHwKUw79Tui5mDJWklafcsTaqNSJZSwMqoy+NQYGMbxzMMntOxT0RcNguzEgY4xVmf3+pO4fWifDwDAwDLYTAxMTExMTExMTE5O0hFbKVYbmWUpvU+o0kipHCTVNrjZdDUw7l/w7R2tP3VcVtEEpaWdFPxqjqTEoXYn1xbfqWV4GtFllGJxZDKqMMZBr1awy6pyzW0Dm9dQcPGQOMgwMA8NgAzEwwu2zLVMcSK23rM8YBobBpYpBiXPbJudhGBgGhsEGla8ij7YmdV9qT750hZ97Xq/UapBTz1KrQx/MYXxyztLfxnzmJDGoJizP2HlVE5XfMNguDExMTEy2RnIOYR9+riOKlKukNUmbQ6SULvF1zEybuq/y5JXaLi/ZQiqJ31rq3JEiuK4y04G2W3zu1lhJ/OWcQ7F9lIMhGKTaa2pFPHchE0qrLsijT1QRw2A7MBh7vI1dvqrnNQwDw8AwODsYbPIqubJymFj7GwaGgYmJicnJilBO1OxKjJwyFMKLzPxCJJQlZcGTfyjUV8kLILcsfYl5UyEDUyGChmA6JDRRblmGYhALDVclrhGoT0k/GEq4nNMeJWSuhsF2YZAbwrDPOA3VNYesF8rClkGc5LwyDAwDw+BMYNBrNV161ijXzDlFAOypzkWZpcGsO5tQVsPAxp5hYRgYBobBJBiUuGVDP3fuXIVxyPnAXPdvnyZN5NmctGOrhCqz7ql6pbAoJdsmgc+Q8tCzzqV5xtqudGGSSw9USqtE4reqoI1zFmmGwfZgQI/fcutSF4y5kvkilWauI6RhYBgYBmcLAxMTExMTExMTk0tZ+lroSiyKY/1ORpmqjLLlhslJWRH7kvpWJ9COOauf3HJWPcty0hhAOVFzCYFpaV65K7mhbWUYbA8G2/AOGLMuhoFhYBhsMQalhNt9DqqPKdtE8tunrDlOO0OcBXKfGVL2TcRgzH5zkuUyDC4NDIbkN/X1kyiTYWAYGAZbgsHYDh9jWQqmdjqpJsbB5OyIOUAZBjYfmJiYXFJSYlGcSjOeUqYqW4hGY9vCmpmYmJiYmJiYFK2Uc7xkYx7AsXtCq/KS82q5Z+ZKzwv2ifhAAodYOUrrX2V8Tj3XJ/0+v/vaaioMqgnqXfW8N3UtF4OxxoJhsJkYpMrYF4OSsclI84avbn2ozwwDw8Aw2FAMUopcqIApMsa6APRULOgY5UVKMaszldhYg+Q4vpR2IDfUXp1ogzGUxyqjw/ksozHLafOeumAAjIVByvkqpw37YuujHKgHTj413dCWqYnCMNheDKoMDMae/EsoOXLeEU0MfOeLK8PAMDAMzgwGvS2QmyJDLAqn6cloW9Xjn4WtDD/DwMaWiYmJyTiTaw4VTs4qPMfqF0sjdT2HoDfHOlDye114fzWBtt93S5oMLEvLVQ3Id0oMShWJMU3zVUEfrAaWtzIMzgQGl9pizjAwDAyDLRZhemePnOtTyWk6l+TGpx6jvJvqRLMpGEyNz2nmbRhsHwabMC+dRj6GgWFgGGwpBiUOBVXG/zFX/KHfh5I/VwPTHmqJGKP8uXnkWlByQ5iNtboaqw2rHnVPteWY/WNIXxxSXsNguzAYMn76EJuX7gKMQZ5uGBgGhsEWYjCVRdHExMTExMTExOQMSGkovaH5VCOnk+PN3Fd7Lz1zOJZFsq91og/VT+lKaax2ngoDG8uGgcl0WFWGgWFgGFxaGJz0GcXTlpM4K7fpYhhsJgZ9znMaBmcHA7fuJ43FJo1Lw8AwMAy2DIOxLYsl2vgYXECl6Z702YJLdfViGJiYmJiYmGzBizcVbQW65MipyCwQp8cJKaKpPCEd+SVnaxrSNEAhJbkqzKMkaktsq7smTRHUh4Io51qp4wsngEFue1BQjtjCI9VvY/eXHJPIoZ8yDLYbg9RzkOeE1mcM9kmjGqkchoFhYBhsNwaTehOPaSUaeg5vDMWazBeRycm0Sd9rJ1mmKdMwDM4uBtsy5mzeMQwMg0ugoqUxmXND6g3Nh4TlIEd5y1H6ShS/sba2+yqVYzoY9a3LJmDQN/7lWMrIkIVVbgi5VP6GwfZhMHTM9BnHY8wrJ+FMZhgYBobBFmAwRTSEocrqSSjLpxWWr5ogzW1bDQ3B4CStRtUp41oNxMUwOBsYmJiYmJzKCzq2N157Vu85lj0SSqcvkHbzf4lmHwviXaq4pYjEc0h+IY+yp84sV93DwpE6a1iSJok8cs6oToVBLPTi0LCFuf0ldRZuamXGMNhuDKZcAJeMxakX4oaBYWAYbBkGlxrhdo2t8odikApHtOl1H0MxMAwMg23HwOZUw8AwMAxG00BzrvfZaq16ppUbemZo2B5IW0nHwGNb+8BUz21C/Sob54bBFmNQWRkMA8PAMBgr/6ZFsa823Oc595kcUsnSfEJ5bOIqwlZjhoFhYBgYBoaBYWAYnFkMTssJxcTExMTExMTEZEIFL0VmnUN2TWYaJTGZqxH+IJ8Uu2/apXQ9OUThfYh9S56NOemU3BtbJEyNAeSTLKfupee9VY97Kbx3CGG6YbCZGECec1yfoAC5R2pKF/i5gROI1M8wMAwMgy3FIOcMHgUgkgneEOU2d5KfoqwnRRV0qS9gxr53KlqVamBeJ5muYbAZGJiYmJhs3Qs5R0MlYIEj00KV0l5TGn0pOW8dsSz0VY5z65uytPZVenIsH30WAqlQZiUKdJXRz8bAIGWxzF0V1pSRtPv6WeVJc+iKtDYMzjwGudaGEgzGeCeMRSNSFbSBYWAYGAYbioFkTHpTylAHlU0q20mlWeLoU5Jf896aLn/mWPUaCwPo8nBWGfWCsANX7SgpKQerknrlYloHyhcrq2GwXRgMGVOxOo/VPtClEOo7V4fmK8PAMDAMtgeDoj36ktBrJfv3JVp0zlmiHAtbboDvEmsrPa6P4QiUS+MzxupiijSGYDAFofJU25uxPliCk2FwNjAwMTEx2XiRQg15SoLZTXQBP60ybRIWhoGJyXaIjRnDwDAwDE4NgxwvnLHyGOu5vpaD6gTxvJSlOuG0qw1I97TjERsGm4GBiYmJydbI0BB+QyyRprWPk+dpY7tJZTExMTExMTE5A1JtWdqm/JiYmJiYmJhccuI7o5jjhRPzSuyjWE11ztH1ACopW6nHUOx7zNvJLZ9PSa09SmvIuynlWRXyPK0jaYWw8/3ep1x9MIiVn4zfSGBSk/Z6DaWb+3xozOTgYBicLQxy5pDUWCBjPo+N5dw0S9LFMDAMDIOtx8DExMTExMTExMQkT3LJJfsSaefQYpDIr09owBxybArTLSEH70PhQyaGOSHD+qZVDWirTcGgT9pD658bZm7oGDUMtg+DvvXuG6xgrLTHrrthYBgYBluAQYweZwgRZMq82nereSiB5JRSuvVcgiWkt9x82IfujW2fjYnD1BjkpBW6N7TdWY3ct8Zy+Op7xMMw2EwMSknyc+boknqWkJ6X4m0YGAaGwdnCIGp1y7E2hqyPpQGzc5/LIZfOIQbPIdmuMvMeg14nFWIwJ/xejtWkxKpy0kp3HwxSBOr0qP/Q9hyTQLrkXsNgOzBghPli6vF3kmUzDAwDw2CDMdhheHSRofF/SxSGkntCsWOrgenkKDE5h1NDIYJSDRd6LrTqyXk+ZuUttQTlOLCMgYEPezfebuhQb+z5mnwTfo4zT+hzFalTnVlXw2B7MQjNIzFHmpR1IxXOiwhOvvFYZ8wbMQtFqpyGgWFgGGwHBkXWxdOwMo1tnTqJPKtTrpt5KZmYmJiYmJgMlqGE29laZ+G9fe4rpfVJ/dY38Hdf6xv0D+hdk09NM/QMY+psJD3LXopBn3OXKYoTIqu3FMVAlVn2FI4UYGEYbD8Gqbkr5yxRHzqfVB1DC8/QvaHdDMPAMDAMzhYGo1imTjIcl4mJiYmJiYmJyUQiTOP509e6RERbD2nLRLTfXO04thrITTtn1cBArOiRJpntO2ZeQ9KwMIAmJqc/Jg0Dw8AwMAzOnEx5PtBANjExMTExMbkklasQmWyMJgby6GNCSlYJhUUOfU6Jd3XO8ymqjRSpd5V5LVcpLaEKKiXdHkJXVGW011QY5JY/hUOu01Zue5eWa6rnDYPNxoDIPJT6rS/5f87Cty8bRR/yfMPAMDAMtgCDEmcWM18aHoaBiYmJiYnJJSw5FsVSq1Xq+9RbxlOSBedaG3K09imJrque7R/7XA14ZkwMxr4v595qonZI1b8yDM4EBhRgMGU+U8wtlWFgGBgGZwuDQ8LtGEFtLjB1hrKUk36MhLLUMaaOpF0lnk3Vr/ak34e0OkUEXhLqJ1TPPiGI6sD9dWa7xRTHMTBI3VfiYBQjIc/tC24+fUhW68B4LMHaMNh8DKqMeauZb6wsOWTidQZuuWE9U/QcJfREhoFhYBhsDwbFWvBU4blyrk9hORjDCrlNUp3wc5tYl7NUfsPAjkCYmJiYTCIlIfxqykPrkdBuS5XL1O+5Zezz8hlCwJ278sjJp06ULZewuupR7lJcTxKDHMtUbtqlVqOx2qoUW8NgOzHIWd3njJMUvilras73knKPmZZhYBgYBpuFgYmJiYmJiYmJiYnfspRDjxOiw6HnPbk0NzEqmFQ5IY/Sh4Kypp4vwYFE3hT+z6U0qgrrT2FeJWUdggED74M0bU9O/yvtp6Eykki/MgzOBAZQtvMxxJmszzw79NpQRzjDwDAwDDYIgzFiPfeRVOxVkzheJ/38WcDAxMTExMTEZIDESCNL6U1KrUtkaLelVqqSlX6fvPrUjQHPVYXt0Cet0lVJTn+aCgMysShZlaVw7nv+tS9xa8lYNQy2F4OqZ92GjMOqR1tUhdcNA8PAMDgDGJyWRfEsyRSWLrOeGQYmJiYmJiYbL0MIHvta23I0+NJzgylrQW5IvJwynwS9Tm6Yn7HzMjExMTExMbnEFMHcw9chhS2krNWJNOpMpSpn2yiHpDdG8p1D40KmYuoScfd10ChRCKsIrjn4peJ258auHNtJJYVBSpnPiYdZZX4uiRTSJ6/c9jUMth+DkrGTWwcy8MlNr7SdctrMMDAMDIPtxeBUlNMx05jSgtfHWrdpFrhqy9LdhHJUW9K2hoFhYGJiYjKpCP3IaEncmwrhRWZ+bjqlJLm+35t5l5A898mrIi9ED+QTZzbxi4UIGoJpzKpaku+UGMRCw1WJawTqU9IP+tappD1yQ8cZBtuHQW4Iwz7jNBbcIBbClMj8mMK9D8m5YWAYGAbbg0GvVXafmMYlq/UxV+19or9ss5XtUpLKymoY2NgzLAwDw8AwmAaD1Lk0N5Oq53M5CmOJ4lhCkVNFrAfutapH2rFVQqmb+xDqoNRZ0xC2VWH/KFXqp8Ig1nalC5MqUffYGbpc8ubQM9WA/m4YbC8G0O8Mck5d6oIx1/c8UlUwlxgGhoFhcLYxMDExMTExMTExMQmvzquClXPsudhfKP2KfK/cEuqcUqLt0s+5mOasSkrTHeJJTiZeqRXUSWFQ4pWa21451uPccZJzbwr/XMuUYbA9GFAwtkvHAj3Gf9+doNx3iGFgGBgGW4rBJhBuT0WsfFJE2EYMbWJiYmJiYnJJyhAC6dRZHhjfYWUMqpyTdKLp6xg0NQZsGQbVSGWhR1mqEdKLWYQNg7ONQaz+JWT/fTDpg9fQ9AwDw8Aw2DIMQvQ4JRKjRSlNYwqpR6jjaZR7W2VTMDmJcmx6+xsGm4/BEBoew8AwMAwMg42ds3OtRNskY9PylJzbG6sdNpHse9PLOGR12QeDbfEqMwymxYAtHBeGgWFgGFyCGLgWxbpwAq0zKtmHmNrnzl1n5pMiiqwTaeQ+W2Wm15doOPS7m3eMNPOkVhB1ArMpMCgdYCWW5RgJaW5oyL6kqzlE9YbB2cIgt4y5GExhacjdMUrdZxgYBobB9mNw4hpubkzhoVaBMdOuJkjP939T096WNFN5jGltGiO840lYXw2D08egD0ZTnz2uJni2MgwMA8Ng+zHY8fwYs5pVGStoAs+HrEIxLThmWUyF7jq8nrJU5mjmsZVADLdcC0WOlaRk1RIi/s5dvfTBvyTk49QYhNq3jtQxZSFK9ZXcMpQM0BD+lWGw9RiEdgViGPTZQagz80+Ns5Rlv2SRYBgYBobBFmHQhx4nZ5LeFDFnE8Nw23A8y3gbBpuBQerFYhgYBoaBYRDVck8LsOqEnjmJtEryKiHsDj3fhzS07/0lYYemxCAn71Iqg9J45JswDgyD7cZgLFLfsbb0pyAbNgwMA8NgizFoWhTNcnTpWS1MTExMTExMTAZpsGNrySXUGKnn+paxDxnuEOvGmMTjMeecnFBjuWkTKHOpW//UGMQwzw3Onmq/GBZ9+wQD+6BhsL0YpMqWGis5GFSRcg7JNyetqrDNDAPDwDDYYAz6hvAbQq4dSmsKYuwUFUfJs7kYnIw1b3FQAedWTaiN5tTVV5H1NV1fb4hq4/fGbVAj+jjz3T4YbJOM2Q+2VQwDw8DExMQkKTJh2jHuw3rE9PqkA2nOoXoD22uFwWJ5M6q/C9w8cvoXgV8Hvp+93YsTtsEU/epSEsPAMDgpDDYdZ8PAMDAMJi7fzkAlKWQJrAkTTIaobNyVew5tTgmZZQ4xdrPcMXf1GHVMjrv6UGvFDyNyrCSqx2oYWgK4t2rrmR3gn4H+HPB5TxlDuI1Rr1IMhoSNjLVTCclyKo/QuBqDDNow2G4M+hDslszDuYTiKbL72FxZGQaGgWFw9jHYiVSipNJ1BAQfEFXgGTKvVY7SGVLofHnUmYpKjEOwzsAiJ52+K4ErWgqeTwtU9wYB0YZyKI6mKI2PckWkjrk8mFNj4Gu3kghDKb5IiHNO1QUDloy+CukINFWiXQyD7cGgzri/dEzUhYvtKmO+Ss2rhoFhYBiccQxKD5XnOCBUEeth6N6YA4h76LKOPFtH0ovVrwoonykcUvnUgfK7jiE1eYdNu/kIx+cNj/6vPx/+IWu98PBzw6R4dF/HEhkj7M4pY3UCGFTkOTLE0qsD7VknFik5faoO9Msqcs1XXt/K0zDYXgxi80sVqWOo/GSMw4p8IvAcR8GK/EADhoFhYBhsMQY7kYrkWPqG3hOz+OX8lrI0VgkLYk6Z+1g8U2nVo5bn0BJ46KRyaE08/Ny8hntNHF+YI0eXUsts6W/1yG2Suq9veen5W06/j60sU1ZXw2B7MciZL0uvl8xDPivsWOmVYmUYGAaGwYZjUEUm4VzLX6nlLdd6mSs554pK0ztJMuF+2IquNcTm36Gi51gXj66tn2tec58vr0cfiptqxP41tF8NJU2tBuRbqojUhsGZw2BI+kN+rzagToaBYWAYbAEGOwxjKS/J7KSUxVh5x2yIU1QW15bA7naxR8T/u4Q+S5/BY8riOPme1qRhGFzaymJ1inUyDAwDw2DDMdih/PDlJsuU5ZyKNqe8zLp2TOk4O7sOKofXNKApanvbuZ1OfYL4VhPjOmb6U2MwVVkNg+3EYGg+MW/zeoPayTAwDAyDDcXAZ1GsC1bXdWAyhtMjqJ0y/xgNz5hpxkUcza5DeSP+7x0aHU8a7VtyVlBjkI2P3VYlTk1TrOSGplsZBoYB00XH6lv+eqKyGQaGgWGwwRjELIp93LBjn09CQXQ17inyrwdixfDn9ZjiRpuUN+1bWtZEbf0QTLZnucZo8/oE2ulSE8PAMJhijjUMDAPD4BLCYKfHajkUFi91PWQ1Ct1X+h/SZtqQ5RPCvI91Iu1ccssRrW3S0AEDZxCbXs5uND8n4l/3dy1p/5QFZyIMipSEqa2VY6U7dghLw2B7MCiZS0oV5GrE8qYCCwzJxzAwDAyDDcSglB6nIk5MmSLcLrVexlzAcyyHOVQYPgLN1GqhipSxtEw5q5Muri6lTUdbDHi4qOdQonofrTM6cQivUgqAPhjkcnSm2jSH/LuK9EECk0WMvDmXgy+HhNUw2D4MQmn65s/S9Ogx9kqtJ6E5k4z51TAwDAyDLcNgh35s4jFNupS+ImYVJMMSCeHzkSnrV8jTNrVKSL2UYuWvIh2AvA6nDT2vef6QhtfyIUdiw4zYOtvYdGRxY/oJpKNShOqWYxEcAYNOyEUSfTLVJ3JCE5ZikBudKMfSbhicTQxK5siYxaJOKNpVZN4kMl/l7rjEDAWGgWFgGGwxBjuRQlUFE3tVUMGUEpFSOELAu3Ga64jyWlGmvJYoRanfSuI1ElCiuxZDV0HsXPeE7PMaHVte0nWk0w3ZXh8Dg5yoPmQuIGJs+Kn+2ZdCpRSD1OLKMNguDCh8NheDVGSpKqHwlpYlhkHJNplhYBgYBhuKQY4zSyyCQkwRi23nVpSFxop9rzK1+pj1IcfETOH9IbxSSiRpS+0htY1P2XMvuO7MTQeXRoSWQ2tjOzJLyvJSZ6x0JsKgE8cyZYkqjclZcvY09L3O6Ad15go1Nm4Mg+3EIHcBnXuUow48m3NuuuS4SJV5Xwxvw8AwMAy2BIMdyg9IViNdixVyCNHt2KzsQ0jFx7S0HH8/VOYkpBw2r/lYud3Y0D4L5Ghs9dNgkJdGNbBcObQEQ0mlS4lfDYOzicGQOY2MMTM0KMFY1hDDwDAwDLYMgx3y4qumLGpjuYlvort5vXn5SttYiEYsic3vbhrq8Zw+OrtYbzYGJiYmkZfDthDjGwaGgWGw4Ri4ziwxbXMKsulNSuO08u5JuN3UAT0WRXGVSfHQ44hHtzxSGvusWvqSb59m+5mYnEWptixdw8AwMAw2FAP3jGIfWpMxtOpNSeO08i5/PkS03VT6+nzWXmUag3DdrIcmJiYmJiYbJm4Iv9ghzZTlqA8hZA7VjC//VHpTK4Ul9cwltizztnKpbo62ow+dUZxrR89JW9l0wwEea4t965aiMhkPg7RTQeoAbyreZYpYvqS8uXQFfctlGGwPBlXGvFryW2p+hniAATLziI3pkhCuhoFhYBhsEQY7CeXM/a1JPxNS7Poc0BzrAOkYtDS5k/yYru6luN0fjNksErnmKpsS0kIfGlDm6oQwyM0r1mYlZc1xjOhTt6EYGgbbjUE1wm+xe3Nfdrm49CmPYWAYGAZbjMEOeSSNTc2zb/SVVHi9kgk2VcHSCDA5IQlTaeDBMRZKsG+6FeibgSeC3Lb+fqwc+iyKh1ZCbRBvH55HbFseLyLyy8DdBauo3HYeGYMkhQqBlVNO2qH7c7HIxYBCfKtMq5ZhsB0Y9N2Z6Jvm0BCqJUpxbRgYBobBmcGgyNozxkp86Iq7dPWe88wYVpEppUrUqRqYZgm21cA2GQuDmIVnjDxK8a9OsP6GwdnBoBr592qk9silFqpGwN4wMAwMg83GoLeyNEbGYwA75kuoNPJKNSD9UFpVBJ8q8cKqTqBjVSNifFIY5L7offUv5Yrsc0SiKuxnhsHZwGDoHFgNmI9y2mBIO/adGw0Dw8Aw2DAMhPQ265QKXMkhz77l2RbqlbGdY7YRs7FDAPqeOStUPIaBYXDW50TDwDAwDAyD0aWyMo0Wf3ZofidZjpT1qLrE+75hsP0YjLHzYhgYBoaBYVCMQciiuEkaZnlZFstvA94AenmH+uU4lnH7cyq6yereh4AfYj77fOu2/YOrEXkb8KSjZ5pOJYeOI7r+Tdyy+OhtAPQi8C6Q1zGfNfJbXoPo24BbW3Gcj2I3A6KOwwqN2NBO/Ofjcj0O/BLw73RaC84AACAASURBVFv5mZiYbJOF4LQsCNuUrmFgGBgGmWn6QvgR+H7ak2Wmkniwg/KLoNceK3t0lUXfZy97dfNebkDYB/5eW92WPVS/raV+B/NpeB+7171l4t8g+j7grkb6eyjf2n6umZ40Ljv1U7de6v72JkQ+BHwpsAIxYmwTk02d/043zW1L1zAwDAyDjDSbhNups285JLW+e3OobHLctH35dl3ElQq4+shy58ZDVseaRtMKh9+w2NStlGs6eR7m11QShYYFz0mjSXLdsnA2n22V41oHg+vaHIhOod00paEwtgi3Q3XV64B7AihMHcbRwvmZmGymNcMwMAwMg0sQgx3KLIklIfyGhgZsXq8z069bSpHSUA6bmpirFzkamja1NUdzk1jZms8203a2t9UpSyj/oy1h7dZZ1aOBOgoonmq7z7nlPdYeQ/xxJxHGMcXRaGJicjrWDMPAMDAMLjEMYlx6IY6yHLqKGKVJlZlPqoyB67Kymok0FLvm//XnQ8ta897W98bn5v3dOrWtdUf307iGc615r/jzpPmMx+wnTj3durnXm5mLcz9uuaLtGWsDEv0jRmWS4qML5ZXTh3PLlHNvSR8txaVK1LUkL8NgszEoKWduOrHy52IxRZqGgWFgGGwxBjuF4BxqppVj4ckBJXfiLwmRFTenSnO71bMNHIiCR0A3O97CdvIPRsLzXJBYed3P4poEK8fqFy4r2lZuXYVTsspUyh1HRqcbGjap7Npiufo/n1U96jQ0jFvVA5dqRFyrHmkbBieHQWk5z/IL0jAwDAyDDcVgJ2KW9J0FDIXgKg3FFwvhl9pezNh+dLeMdTwDrnrqrDS3h+lsNRfnf+jB3Eqv7hTEs6sdLlOgLpLUcOsR2qciHCpyQDsn7lssK1TfDNzMYvkK5rMvFZQ31t9zQsfVPfp+Sb3HHDOGwcliMMY8OUaauWENS9OcqryGgWFgGJwCBjsB7bOOaJilRNhuAeqEVpyi6smg8pGEaXCAiKfcHceS3DJEPGdEIqsZSWchRXUJasOME+0lthKqGT/s42E9norIj6x/fwb7ywXwevZmj2bmU/WoT0mapYHpGXBv1RNrw2AaDHJl7MP4VWQO7pvX1NRqhoFhYBicIgYxepyYdp1zb0Ue9Y5PSw7d79N4Ha3YtSY2P4tjiUtZ+5znjh1j2uVrWf+8ylYkLw2UtZNUA4OYpTKRVpaFU0pWVmOscMa2HsFieSWqv4wcbdefQ/hR4HksDl7CfPfjEwy2seteT5DnVAe7DYPpnK1OEoN64vIaBoaBYbBlGOwQJ9zO0V7HsAiVaPKJ/XzpUtDQ/CzOdq1DI5PU46RbBvE86KPGQfx6ZKisLWofj0VRJUDp09y6Dhy2jNEAjW/JmeqlHJM3ADe22nlV5xuAP2Rx8HqQf8t8Vp9QeU4Dg0uhPIaB0X8YBoaBYTAhBjmE2zkv0rG15oHp+TgTCShM6vnsUapS5VNX8zsk1na1TZ/FUDzaY0fhrDtVbBJoq5N3854QBupTYnWKNs09oziORWZ/eTvKv2hVp0WZxA7I6xD+NovlS5jPHjmFgVzbZGa0FSYmJiabLj6LYg6RdpfoOk2cnaMY5oYTTJCDS9uK5Hr2tvQ28TwXSNP/olt7Pue4VEv3t1Z+EtZ7O1bMxv0+i2IwbwLPdJTnsVcluedSh+W7vwThTShVp2278lzgehYH/4j57gOZC5ixCMdTFvShZ1HGLKthcDLpmpiYmGzkqt73Es851J3rVl5lliPXlTxVxpW3b4uz8FjbCutOGtXVnPucsqa8iyO/S8a9kiiUJEIP+tKOObKITNHX6ox+mHNvSp4JPMNDZRTC5XbgEyyW1xcquyX9uzTNqdKtRpwzDIPx0910MQuwYWAYXIIYHFrFatpbzTVd55LYH4lncwB3y0Dksy9Pj6K1psZpRWZp/hH4rJFnY2Vx0zpUvDxlCUZWoXGfl9qn7tRBfeWT4zQ0UF/VQKQWJdKOoX5SZ7RnHWnH2Pc6qx8sliD62uM6O1F53DjXx3W/CfRj7C9nPepTF96bU9ecvl5njI8+dcAwmByDqf+Pca/vWlU4putT/G8YGAaGwUgYuJExatKRMnIiauSQZedYKUOfwxZQcU2GTpQSf5iU8J90TJORsgj+bWZPeqGtavGV2cXL+S10r5uWeJ6TwDPhdoxF4Im1Z44VOpeJ3t8PVJ8O8pQgzoIHt6NrNyD8AYuDqzPrk6pXbh1y6k4i3dI0YnWgoE0Ng34YTP1/jHv74tvnXsPAMDAMNhiDWKznEMHjVE4OJc+EylK1nDK8JNQkPH4DlDJtCpyuY4mXHqfh1HK4PXz0OeDccnSpGeM5RVejgfIfltv937jPSxUkOf1gjLYd6tBw/PyKXPsVx9ZCF2e6/eLoHOsRJregvI/F8puZzx4foZ+exPZEaT6+tkyRpBsGZw+D5lxan0A+hoFhYBhsKQYxepy+DgYx55Y6ofiVphcBIxKyL3kELxBbOVRmkUga0rZyCkSdW8RnGU05l0QcaVzLmuvg4XOC0ehqKJdcvaRt+/7ezOMGRJ4dtix76iye9hN5OvBmFsuXMZ/FFihVwcCLPZPCE/oRnKfw7BNqzjCYDoMhY2BoPlXPMWcYGAaGwSWAQV/C7ZzK5Dxfj56eBki2g9dchcxncuwQWHcJt4NE1ymTZg5ptkTy9KURMpsmaHraymVfEuRS6pux+shLUa3CGGjiWguAf4HwMeC9I5Qr55mxMCgpQ9VjfBkG02Iwdt1P6jnDwDAwDM4wBjuJl3mVMbGGng/dm8ujF4u9Gpr066OtxKYXs+vE4CoTXt3Jt52rbgi/lZbe3NptOU1Il6z7KJ/IdjFe7+SqpfC1tpMbabvbrKy3YLVZX3F4F/EoxVHqkppwyMc68myO9bCmNIzSYlmBPv+YPF199Wm0tQYWAa17fpH9g8+wt3t/5souNW5ySOxTuKZwDGEXi2GcWn32Ka9hkI9BX6qd3HEZC81aej+F5a0NA8PAMNh+DHYSGmfqe0xjTVkOKtKh/cotWR0v3hhFiuP9qiELnyasnK4Xrc/TFg85dkCZccvfsfBJ13s6phyFvX1j9e3TFnVBP/AtDvo8D6pPZuW5nGqzCJORun3maoR9FsvvXG9BDwlxmfL2DinMfcZh3aN8UB5m0zAYD4M6E4M++daFv5fiYhgYBobBGccgRrgNeeeJUhpxSsPOdZTIIfquES6i8hDCdVElIbU7S9DodL5bH3ksuKtZKuo19J136v1wyzqZfr5bvzgW5z2rjNyVUpXRV0LWxjpglY7E9qZC5DnBeqYw8P0/lucCzwb+E/158vqsBmOr15wVKBlt1ydsp2Fw8hhUA7DImZtTlo0xycUNA8PAMNhCDPqeUSy1FqTSKQ0TGM5vvluzWL4SuBP0Mq+jCBFlyue9fOzscB74MU9534LybERvOErEdzQxR3tsK5o18B7gs+166p0g/wDh5k6aklBCJYpFjeq7EL5Amrew76qslCOTjL72bK/lWBP4hv63Fek3sVh+hPnsAv2lbxjMISvQnLYbErbTMDgZDMbgnczFoO7xjGFgGBgGZxwDSVjwUpaj1B53icZdZ1ix8s+xLZY7wGWdZ1RrRMqsEnpoueIC89lFb3mP86tQaqSZ59Hz7frq4bnKwEpAgb3Zo15rWyy/w7Sl872rrDafPc6PxKok1FdyzqLGPOFjZ2T91uf95bWIHqys401qpOZ5TA1QAIXoiRzzoupL2Nv91UD9U+Mk597Yed/c83o5LANV5niGvLMtp4fBYlkBTwX9FuAm4ALwX0E+BNzd8FjfVAxy6adyrAKpMUckfwrLUZJXCq/txGCxPIfqsxG+EWQG+hDKJxA+yHz30UsCA+sHlxQGwumHnpoqRuoU6VqM102T/eW3Ifz2tJnoPSB/k/nMQldtgiwOrgX5FVbhGrtjdGUV32O++4iBZTLyfHM7or8G8kTPr/ej+lKQj7A3M6xMzozskB+DdwzyxpAX9Rgv4DGoLnK08BLTc4rEN7Z6GJuM/LRkYgz075RT4YSu+ayNANwM+izgQz1XlzkYhPrUkFVhn/YovXayGCyWVwMfRbmlTUh/1IYVIt8N3Mz+wTey17HwbBoGROqPx2ow5nzWp88MTW97MVgc3A58FLiyPX8cfX4CIr8HvAB4/5nEwPrBJYlBiHC7pOCp7ckUqW1u/kMUptI8+pD3lqSVCg1UWg5GfnaIhIjRp8FA5EkNpZFj3knNKKqP+NxDL7SSH2Ll1BJSZErqm1O3qkdb5lq7x7x20hi8HvSWdvjF5v+jdrsDkR8HXr3hGOTOIfVE80GfvpVS6sfqp5uDwWJ5DviNYyXRu2hdv1PlbewvP8Xe7IEzhYH1g0sWAxmQSY6VaCX7B7eD/BTotd14xIfnyfDwGErAwHN0y3mEH2c++3jr+v7BMxB5A8rl0ZB9Ka7rLkoPgr6S+e5d7fyWVwH7oLcdnYVTh68wh1/7KO+jLxcRfo357s86k9ZVwJ2oPqnNHehYyprptTgcg3W+CPorCP+B+W7dyG8HeAPwzPW5ykxe8iQGNaIfB3m1EzIvX/aX/w/wxPDEnevdk/ztcYS/wjw6+ccGXh35volb2mOWaxwMFgdXovI/QS/PiMUJcB7hLzOfPbaBGEyZ16bK9mKwOHghyjvDNAmd3Yn/i73d11o/sLFwFjBwLYpD4hyGCW1F3gLcsYq/6yoUKV215VRw7IF8fPltLA7++lqxqVgsAX4N1dUhERVHkfEQWzfJqrUx2A+V2HZs4DuBr2/XjzmqLz5KNxj4xDPBiEdZRJpeuLezv/wIe7O7Gxi/EvjuFi6tNBwvaK8iHtCJlNuBjwBfatzxLOBfHqehDq4ujjHF2MFA5TaEPwPeRZ4DU9ORZQd4QpugvNk/HC1W3cld4v4t7f/ngG8F3h5YPcZWZqmDxjlOXCUTSB+qmNxVcW5ozgkwkCevlMTUau+w7fVK4HbgkxuIQZV4eQzpB1NQ+PQhII+d6d4yDOSbjuc1yTi1Is8EXne2MLB+cKlikKLHCSmGpeG2rmuTWjfn+FhIO+1ay5oWt9X1a0DOsfJ6rIFzqF5bZjYMaE9NxfI4ksl1HuC/qqM0dUiu3by0rdB0nmspOdcBX2xcmPnx1Gh1wiIuMfm1wN2NdK8PapeqGfknMECuJcwBRbDfiV6FymWt9lT1dyVxLbYec646Wm6rPgKq3wL8x8DAzCGITpHMu3VO3Z87/obcVycUqJPE4NrWWImN6+N+MKN/OMqpMEjl6+v7VcEc3PfsUkm6OXVOEZRvEwY3daJuafM94RgjlCeQR9Ju/cAw2HgMxg7hF9ZkxbFAhSw/ndB02rW0iaNgHT9fdaxKrs4l2g2p106DI0ukBH7zTgBynH47Q0eRkgB/owRCRR99qboWE1fHdraYEwba7ku2pZQ36ueE/hMHJ9RfnlIM0tYyl+j8CuSwD7vh+6StMB4qDtIoc6f/uXyUjZfB6vvT2F/usHdEkeRTakiMofwxE6csSK1eQ/nXkQksl14npdhNhIFWR40oECVCbSv9m4hBlVCeQ855KQegUBlS+acsEKkACSXnsbYRg3OdMJ94dlCOP5zLsBJZPzAMtgKDHcoPYNcNbTbXVItXyUn9LnSVCveaqyS2tnXV//JvvmS8Lxxv+j48qo7iGzszJZlk251ySeYzkrw9eSq1bbE57oShtMWnYA1o+zInjsvjfSeApWQV1Fe/qxF9YsvaOsxBIzWoS9KuJihT7vWTwaDpq9RvjtkUDHIcuXwYVJn4VYly1oF5PAef3DKcMQw0sqC8VDCwfnCpYrDTc+Vfl13XTIuWxkPLtciQO8nXbasVzuoP/w537hHJ9lmUult09Tt2kKqP7wZ8xxnrIKbuVxcvd6vO69DinNlsW3IcK6ySFbIwFwPEt+rJPIun3fxyzpu7ba9O3cIayG1rRbFJfH45cAXKVcDlCOfWY+txlAusnCoeBn2M+e7jGYO671nhMiezsLUylzi9z5ZGf6ofwT9H+EjTu0r+pmIwFqlv6e85hL5jkQ2fDQw6Z8EbnbD5W35ft35gGGwFBjvkU9oMkNwwehL/XQKJSLPMEn7RS4Flzb1PfHlllruoDOLP15dnKr+YVVSS5sYqaKEJWu0GYZBLl9NUCC52HHdC7Ra6loNVW/4Ji4OvBrkRuBm4jhVlxmUJDC6CnGexXAL3gH4R5dMInwV5qBFJpM/4K7EmlqyU+1rbxpAqOTZy5pi2dXxTMRhitRzye1WIQd9ynQ0MJPYekzH6hvUDw2AjMdhxlMS6QJseR5o0Ki3rTspclWOpSJqQctOO5xVNIrcendB6DVzUtYj0A1pzFCFtWvgyG1BCZzkLMSg6w1YjPJqFZb+yhPrKs1d/vtuiGOyAXA1cDXoryHes+/hFlC+wf/A7CO8BuTcQAaZKjM8QiXkM25zVa04oxpMhqo3iG2i39v2bgkGpB2OVUf5Uf2jmMyTfnLRi2G0nBr1eE2cMA+sHlywGOz216Vz38EyLnUQm9+wXe5U2CzYVxozzf2HNtt2wQkQBzTVjSgQXSdQvZxYTvLGeffdpUNkI5yux37NNuSX9qAI9D/I4cK5De5Ol+Emfzlr4cwwDWY1B4cnAk0FeD3ySxcGbQT7YiCueWgFWGVazXJLoPqvXsYhqC9MLnXcI9oNNwqDqkVfuPF1yxnWss5ax9q22HgPpRTl8tjCwfnDJYpAK4ZdrVYuvyDV08FBjypjnP/5nWmfqtO3VWs4VU1J3T/1C5Zah+TZWBRqmoMlXdiMKjzh1jFGSZNAMJTEosWA2+tV89zz7B4+wovPpiUGcgbwc3yH9TQG+bv13N/vLVyH6+y3y87RFru8YHvPeicRDYZTV50ajjtg0EuCTIOXddPLjE8JAHTq3jeov1g8Mg0nLtxPQJktf2r4Qfg2Lm0NXE1rxJ8egE3GkfX/VSrNJN+PTT2P6gdcppUXr0m4QlxpGO/evf0+cFdSolapqXeycw8o4s0isfrRpdlpnc/BvW6unPUK/xzAot8oct4HIvcC1nbxSu88dZdFzTRLGqxC2yfQlp41uAX4P5F0slj/MfHY+Mf6gzLqf2o4IWeBK2iiXaitUrqoDTIf6yqWVcvuB5uZ10hjkxnKtes7DuYTiOdtfQ0OingEMnB2Bcm9n6weGwdZisDNwBRQjRK6Cb9FmJJSWtSDH2tV4GWjz+7pSGgqtcWhtbCosLsGyq3i521iR83vqEmj7lD8npF1rldq8p1E+DbSNJrRA9WjB4hBIu8qMei2KTcJph7vSKaMGtO0UBiJDVkN3ry1wXQXV5VT0WUVb18WjMIv/eysajetx2+zn6rSN+5skxoe8ENGnsFi+iPnsM4RJW0s9xt3JL8UX2Df0YIgUNsYX5v9NQn07oMUfn2msNxCDumCi7zMf9/HuhjyS9LpHX9t2DNr9rRXBi+6umZepwvqBYbCdGJSeucnhGnKtiscvT5e/8EjZkON36OG15v/m3+ELw8cfuHJwcPJxV4IOYa8083bS6/zWOr9Xda180vWMc9NtHZMUjwdxE49Wmv5zBuKU103brS/S9WBu4um1YLoh+jxtGGqfHAz8qyoX4wrfmQvVT3fauVUOT1295U1YacVdUEhDGXX6bLCtQxh42rCFo9yI8jEWB9fgP3cSO6Pow9D9Xvv7dHb0gdC8EYooQMCS5658K2+5xOnHEuA9bZPVbxIGsXnWhwGJ8qfa2/2csvRW5Hl7VuSxZZxNDMQzH4hwSWFg/eCSwGAnUpE6YTYl+56O0cRj9dMAF5qP7+/QUiCdF3rV8hbuhGwTx9rksTq1orGoP3ZyyOtZ1U/mrI4FycWgbUGiw1uYWnmoLx8HK3UwaJbH3bpzrTBuBJtWrGdP6EFvpJsIBpJ8KYd/E/ljr9WyVQ51LNYORl4LrTQ870MWBDeWdPOrE0e6FY1Iuy8VHz7tfnAXyEOUh2wqx7QsfQrShHhUlDpusfOM3ebYcY+bHH/ZNAxy5tTS66n8UpbosdIrxWqbMXB2JaLsD9YPDIOtxaCKaLsErBMxzTegaSvHxNeHodS0bW1qfnetMIKfw6pLjly3rUh6nC7NPNyyHL5UPNuJzd+C25fqJ2qObXUelUOOy9nSOlPpaKPMjbIfpS2e/Bp1V3XqHdnyb4Wxa2KpHqur88LOwSBsiUn3L+Ve0HuP6tDc6u14z7vt3yyjOnXUdvlb/cTpT6jHIu2Jgd3qY548mmOk2wi/GaHNSW1zUHjPGPxvJWdpypSxZr9RbffpTj+QTcdgSPpDfq82oE5bhIEez7mhebPZJ4c7TFo/MAw2BoMdhhFPFmTmPevnan50Dwp7thRb28oaIMH2WPZiP+cRqPrz8jl6hLZCvWn7CKw7z1cdy0oWG4ykybD9+bbz89XH20bN/yUY9OxfezNYHHwIkZeH6yeOcuaSmvucjHwOJ6EtTjdfDdfT17eD9xxZFi+AvJv+pM+brixmioTHS3q4m7KYT81xKb4g4xgo/iM6EpovdEqcrB8YBieKQS49zkC36wjptbpKRYROJe556veSJCcsW+4L6uhzWahC9XAYBrco9PiZtoLWcC5Zb4tqQPHIpqTRQChDz9Zzdoy+RhpN3NMY9O9fyjsRfXkbd7fPhWh8fOG3Yn3Gg4HPk1w00WdDY8JNWwDezd5s2XMiqccZw2POB8l0q+QYc8P0+UJoSqcvbyMGQ/OJeZvX07XTWcTAPRKUnBNr6wc2Fs4CBj6LYl2wug6xj3cVN41YBjXwEhb3ufC73mvlI5CP4KeFIfLublOftMFtOnlEaSKlqxire7YqaOZs09W4XsUuBY3vu2o4fX+gmsqr1DbroBEdqnNmLIDB8JXZ50E+D9zuPSvqOuB4YwUTihEc1r2b/dNH7ycBfVUCZfL/fhGRN/XAxzeOT9K6NTTdbvpeByO6Y7x11vhMYDBVWLA+fWqKsm0+BuKZD0Q886aM2T+sHxgGG4FBzKLYl4i2+9nrUJK3gPN+l6ClrG6fTVJ/Wjlcyt5rnXB6jReYUzcNPetxpNEMi597qF9T+TkYaIYVUAPt6nJDegm/3ec97RPCQKS0v7VlbxcWy59D9W3eNgn1g3abxrD3P5PCQGPPuVjgpxkSeTvz2d09kdlkctgeEnKgwoPfWcbh1KS6dLHU8Jwang9q6wc2Fs6C7PRYLfuIKKvE9S5NjVf5IxyC2Wel61qsqvYqT7xUisH3T0h5ErqWqWadW4TbEqRw7FhSkTAJeMti5553kbbVybuD7SGO1oiFq/V7KL/g+cJuW7pYxDBIr5LSZKGq70bktcD1ncVJKvyWiodWMlVHydo57vblQCi/DkclgDwMvHbgCnJgjPATSzM2lxwDekiNkx2mW8e08EyJQSw+azWgfO5LbQwrVx+i8i3HQPzzmjsftMd7Zf3AMDgLGJTS41TEiSn9PELCeb+S1jyv5ipkDiWJ7z27uu9xkItOGc6jXB18YXToYgJGMF9sZOGCpzM8Ho7G4jOGhAiCO3VbpyePOQ37qDcaRY72qxpW1o+ffazVlqoPt54J8EQfr7wlrED6MBAez1iBxzp6zd7uYyyWb0D5xY5S1omY4yw2vGVWzwvC6a9N/H0vithRiU4/cJTw1U+vZD57IGNFm2IrgPj5lhjxdeyeGNF3isA6l4fQEwEpNn4cZyUJTr6niUEoTd/8WZpeyQujr/XERzocO8J0FjDwGw+IGCCsHxgGZwSDirJg9jX+vflUWq8FfaxFKdCiwXEobAhQ57Se15WCIfJ65rOLR2VYUYi8FuFii4rERywt0qB5gS59iqO5CY8Br/cA/DZE7++WETqUKy2qHvUQU3coVz4EfNbB9hcR7j9ymHApfLx1aNLZyDGlj4s1+gFEP99qT5EPIfJfOjRCvrodYUomBtwF+h6nD4UIkquI0lEB70D4or8dte2h2CFtp0270iLJVmcR4NAliWOObNEoebDw4taJb/5+lF/tgUFsXIbIrPFcqxP3xCy+sTRJ3BdKt/JSVh0tThyqq/Yib9MwSOVLBk4pdoBYmavIM6W4xBZzZwgDbb+vVANjukGjc+YwsH5wqWKwEzE/VoHJL3VIvpvWfPYBFsv/DbiiTR/g43fJ5bwQVrQhPNZRYkV/HuUdwGXxpWBgL7ZlPdKmMvAo89njnXrOZ3ezOPhrIFe2rGot/kcfP6J4rJetal8EzjOftfGfz77EYvlXgau626shC2xzu84XekpB5SLCeea77ZfffPYo+8uvR/QqkMrhPmwrPj5P5yAGUoM+0siPhAXK1y8bDlN6xUrxlFv9VsOQlbjQJb7JkxilyfF8bz0b7N9fQnjput1zxmYoIkvKmpeaXGLbHUMcREpjU7djxrcUdh/2zpb+ZmJA4bO5/aBOPBdaaPQtSwyDkm2yLcCgGYUpMB90zzidMQysH1yKGOxEwBkjSsGxVrpSsB7KUEbryESdMq+u89qt1wrkowFTbSpma8m23lqZ2r3YqF/sDGedqZTHcK7XltOHEi+1nHMOMfyPv+/NauDhRLul8uiLQbh/7B8A8kTg+xF9MXB10KNEQlpc6MBbcxvTd5A05iLvWqRDv3XyfhD4dua7j0QmmzqxdUEG/lXGdkmVGI85Cl9MySehuBF+YXcWjXjbvRsictMwSJUjNxZ2qi6xtGN1SNWpTvS5s4GB+ha8ofkgmpf1A8Ng6zDYKQAhRURZZh3I/55jRQnlUSUaP5fcOSevlJJTZSiRqRVI7N4+GObe04dqpZoMg/3lDqK3gTwL+HbgSav7ciyDAWeSomuSSFsKfzu6/hDINzOf3UM4FnJKOUytOMm4t05YJkM7Db6t8LqwX7hxVuv2yzqFLyHLziZhkJr/fBjEYmOn6teXqL3uOZfEdqK2EwPpMx+cMQysH1yyGOzgj6+aazHsWrrS0ucAaZ2wOPZNbCtT6AAAIABJREFUi4FplaadcgSqyIsTWxe0QZ3AMNeiPLQflGOwWFbA5cD1qD4J+GqQpyB6O8hVYaugL+5qyJ2+RBpOL5LtdtvltfSX+VBJ/EIB7nXESh5KI2d851jUm210JapPAGbANayOfOywOjrxGPAQIkvgftBH1xb/0vB9dfjoSKIf9Jvj8jEIzyHtz4tlBXoFKteAXgNcCZxb//4owiMoDyBynvnsQiCtOtEP0uXIn8NynXkoKKd/EXDcn64AvRHlZkSegOr/vh7r51Z9Sg93ix4G+R/AfQj3AA+sd1mmwSA0l3Tmg5aVsR8Gee+/8n6wvwThNtCvWzt7PoDIx1G9l73d+tT7wWK5A3oVynUIV6FcsVbSL4A+CvLgep58bH0sZzPHwmqcX4nKudVRrqPjauP0g1X6l4NcA3o1ylUg50Ar4MLK4VYeAX0YOM9898JQDIQcV+nFEpQbEH0myF8hTqtjMqoMUWy2Ui4HrgWuQ7l+/fmyLn2NR/8LGZhSO8shQuxYGhoxDIbomII0SHwZ+IdrS+Jmy2K5A9wK+g9Avga4DXgCeqTwxDC4gHA/8AXQPwH5I+DuQAxrT94H3wXyTi/Je7gfvID57L2ngtX+8nKEO4CvB25HedJRfwY/y8KqHueB+45x4o9B7svGaZtksbwM1aci8k3A01Z9i8u9Oj+EA03BVxD+C/BR4PfXiuOY5fxT4I7o/NCedx5kPvvLG4Tz7cDPoDzNmYdqhA8AL4swLExRHkCfADwd5GuB21BuAq5eKYfBtd9jKwWXu4DPrcYGn10vrE6/L6M/CPJSlJsQzqE8jPAR4E3MZ5/vme454EmgTwf5GpTbgOsQLo/S/el6AbrC6+41Xh8HPhNQXoMiGZPdE4B94LlrjTXjDel/G8ZDy0WIjxNv2fhbP/QsEQtT09mDDI0kV+OIaR+aiWOuZaykvKE3buxMTmYIukkxoEe+MW6fRthE1R7tS0Y9nHxFPg78kx6TdC41wnBL+cpqeAfwIpTnrib4sTDgy6DvB/k10Ls8lo3mXPRC0HcW9QORQ0VxKiWrje9ieSXotwIvQHkGcEVWP0hjdS+iHwD5DdAvrK2yJe1bnRgGqfsWBzsgXwe8BNXnriyGpXNndExfRPTjwC8D719bVIZhsDj4NCp3FPTxB9mbfdUJtoM/3f2DyxFejfKv1lan0Jz4ZYRvYD778mT9YP+gQuQm0O8C+XZUbwXZ6TEW3H5wHuQjiP4mKh9ib/bYiY+FxXIG/C6qt0f65I+D/PR6wRcvw+JgB3gaKi8CvhX02p5jwfeOfQj4ACJvceaSpKLo3/deHNyCyh8C18VNNqnBQ+JeKHvxpzoOvhdymMMwV7eNWfqa3Hgicb04qiM7Ze2Qigfq20k/ZHoj/IKX3DIHcBWJW97GxEAksg7wNKaXuzCWtsOJqREMYumF1yY18JPA6xxP+piDFeQTsZY6gXUdvhbLy4DvBn5oveIfF4MuJp9B2Uf0vcx3H++Ud//ghSDv9Pe/UD/gBeztvqc3Bl3x47o4uAnkZcB3o3pVEgM4jtfuDphm/+uMcWUdrvLnWMUAf4x8R7GSF31pjNn0+aj9g3Mgz0f0Vag8aSAGBPtBe75bItyJ8vPszc73xmBx8KfHimLKkCAgPMh89lWEz4j1cdosc1jcP3gKIm9DuSVrThQ+hfL17M0ujtoPFssdlGch7KE8A1mfNx5nLLjYP4zwq8CdwJc9Vvjxx8L+8jKEP0G5PW3I0Zeyt/v2YPsullcB34vyA8BNI48FOkcjRN4DvCJgqDgqnxDabt5fXono50BujCopbhzgTZGUscvE5NT6pt6F8EPMdz91QjmWsfmvtpe/F/Q1IE84BXzuQXgt8J4WddL+8rsQ3lmY2AuY776X/hENUljdiPI6hOfT90hO/9MlS1a8rm9vcMnmel+fnCwOAHkeqq9H5OaRMchLS3kQ4XXAW3tt4S8O/hRci2JUTm/rebG8HOX1CD/So0++iPns3eO1O89F5bUIT5p4LLhyEeXdCK9jPrtv0rGwv/xBhJ/LvPsR4K8ydxYti+WVwCuAl6NcOelY6Mr9KM9hz3s+vqUxNg+erv/0VS0lUdcav+rxX8tg1aQI0AZbhfpeBN00O981Ep9YUy+aNs9ai71Ay9hLvL83YzSH0vNdjMUP9tTdGwPY91/jWNBsNxeDCLaaoYirgwUnjAEZGLTy1UDZQ7glytzCy5deq8APoPoyhL/DfPeTpJ053D/XMlFH7idgjYz9wf7yacCfA29BecIEGDjpeRIVuXm1xSp/wmJ5m7dOuf1Ae2AQx/UQpytYHLwR+G8ILwTdKcegYDHrw0qZAW8B/QsWy2dQFvEm1Jdi/0sjPtQsljeDfBT4TYSbJ8CgOx+Jpx8I166tsJ9msbylJwbJV09gDJflMSTNxcHXAZ9DeDmq+Uri8bv2O0fpB4vlrSAfA97XVRInGQtuP9hB+G5U/xuL5U+xOLhikrGwWILoSzPBBbgKeG7r+cXB9wL/Hfg3kKkkDhkLXXkCwh+yOLgxVOcdfCH7FstzqP6zNgedRJQIhxOupTRIo8C0I1L4pOU9lrOt7EzOregrDVNsiJzXVS4P6TdcAulWWDZpE0uLx6x/tG2K/0igG1IwprmKZ8ugeV0kPOjcyChudItOdJEmFuLHANpxT33N4kYmmQoDHAxixyeb0U98ymInjQYu4tkz93bPxiLl+JH7Qd4MvJW93UcDk1NKYp63PnqEMqvJYnkF8EbgRybBAKffhRS8dhs8BeXTLA5+EuQN3g6e6gdSjEV6C3d/+QyEXwJuaBO552Lg1KE5vroYNJ6Xdj89HuRPBP1DFgfvAF6x5uAs6V++l0OIhiPF1XaoSO8A85XFUy+fHIMYAXt7LN4O8jkWB68B/n3jfFYCA3eu9UxqvvkwX/Eo3dJtp7HyFv8p4J+jWnUiT7Ux6GJ/PIxuHdQPVp7L/wp4Dei5Vt6drfoT6QfngB8FeT6Lg5cy3/3IqGNB9fI1ZoF+4LxzVpf/DvAO9g9uBH0b8LRjfeJEx0IT+6uBNwP/yIdBKKTLDQizdk6+GLn4X/RHIdKc+LXSiMF6WKFmPNZgmj7l0g2bJu2IDJ37xEnPDb/ULIx2r7v8bdLRxrps/eKw+DdDwnXqTls5O/rcPPfi04A8sYJbk4R4MIi0nfe771mnQ4qDQasPTImB+ttYfJQ0cnyPSDtMn7iRWtwB5znr6e2vR9cuAO9H5NuBv8Z89rPMZ48SD80E4RCGvpezy6sFZeGnDreIbgX9s5WSOCoG7X4QDaHoi3YhIOyA/GtUPwZc3yVAT/SDbgg/Im3gI+I/xnJxsMP+wRsQ/QPQGwZj4PbNIAaNft8Zc622+Wcon2OxvCNQjxRXbOXBIMbl2bSuNHBaXo3obyP8zIrG4wQxkKCVummkOAfyJpDfZv/gqjwMckn5W++qVNg0dwxDXji55rZnxeLgWaD/FeQHV5GzcjBwp8WjMbPTux/sL68HPgHyOuBc911xqv3geuAP2V++eX32epyxIFKt6hrqBx4MlMvZP3gxwp+z8vQ/xbHQkmezOJj5MPCT8qpe136D43mbE/gtZBUSv+ISU+ySaaXuy5FQfYQ06XKM+De2ry2EtaRc+3so3VC9Qh7QqWdItHfKE2tqDCSyiPDloQXp5fT1o/trVO9bx2d+AfCX2dv9x8xnH1g7q9TEY3CmXuSx0EyVZ/s0lFfderkvDp4L8ifAE4dj4GvfnH6Q6m+AyFNA3xjuGznMCgEM/C/uyrHYXAXyO4j8n7TI3YdgQPzFEp2vAhiI3Ah8gsXBi4nHcM2J81qiYB5alG4C/hT41qI5ekwMku+uo9++DZGPsVhen4FB5rus846qA4uQOrooyQlysVheDfwSyH9eK0KFGHjLfn+vfrBYPh3hz4CnlM3VJ9wPhJcDf8ji4LqRxkLhe0tA+A6EXwG5YjPGwtG1CrjRh8GOd6tKpAqGQYtO+h4TZwq3FGduVDEiYXHMuU8z80yl6Su8L20tT1ddE70vHc0sd4lCXap8a/ilOToGOqC86knTm94FkEcbBb+I8hjCQ6APgtwP/HeULyLchciDgYPy3eMd/SQ3rGbOGaIK+EHQO49przRvrPjGWbJ9Nd2Gh1s2zW2Y5PyjGfNAFrF3hKpieQOqv3u8xTQUA8LjsYOB5yWrnu2ktlwGvI3F8gnAvx2ZfzG8Rbp/8GTQ32PFFUn0jPL0GOTKbSgfZbH8Wuazh5LzT/Q90ZnDcgNFlBw/gcVBhcpzQe9s7/zpCM0rv0upV/Bi+V2gv3JsRSw4q346/eCpKH/C/vJb2JvdPWgsdMoWepe16njVho6FYH9snlGswlY7X+O6FDDNyb1Rcm24d/soalrW0gbT/VHa2t5GbR0Pka57eDNihnYy6ILpbhdojPMO53eXQsU9y+dxU1cJFCmATVTfkfY5stShYHUxj1IltNulhb3PBZ8AK8DUGOA5Z+lEQ2nh0vyteabWxVJB+DHgPzQKWrM3y5vM86+fvCyWAD+K8lNHYyCIgfiph1wKJh89kyT4vJr9QBwlUjuWgMZvGj8b28pXh2G/OLge+OiRY98YGKj43ydBDBpzlcYwaM2B1drz9S+xv3y102+HenxWnj51O6p/gMrV3ZfWqWHQba9OGyprbr83sKKBihjDXLosbc/B3f5a9Zgn4i/vxfJaVrzGzz96F42BweqHrwBvLShbxWL5YpS3IVIFMNjMfiDcgOrHWCz/YSAaVqGNJNoPtmMsoDXIfb723wmuqFXDCnLQmzmgGXu9bzRgLEhcbxnH1K/IZltDNVIvTdRbw2mIpxwayzNi8UrdF8LCy7etgbTUo8zhV9hjntZR7++pMAiVKbb69+HmlEnkMZR3rTnFXCvAEL661LNTpr1eBfOD64PvcQyavwX7R6SdQl6/vn6gGdaH0PwUy1dailFdhNNieR2qHwW9cVQMpMkKgX989MXAtdwqP8qKU+/H2Nslw5JVjtP+wRNR/c/A1f455pQxiFlejufpF7JYvpr57BEvBkEvU42Vue947c4Hqx2A56F657HFdkwMuBfhOQ3alnQ/WCxfiOrboMmLGPFo3rx+cC2qf8Bi+Q3MZ1/sORbS/WBbxgJ8EuEBn/U7dEaxbjkvaGMvW2Jny9xD5KE/CJ+T8OXj/N5ykgiUQQJ5S+R3Cf3ezCLwXCjf1P1EyuqtDxF8nD+NtEsIt1g5s9ryBDGI1s3B4Kgvp/qmHNLyfJC92YP4HUlCZ9ti540IWO99gd59h+B9ebrpp8u1OPg2hP0sDHx4ptopeg+JtsX5H0qbgn7gbRs8GLWxX9Fp/M7KkjgyBhobJxEMJDFnhsvxL9dns+oMy1ZN2MGi+77YX14D8nsg10Tn3dPHwJkPOs9esQ6x6MfA974RMuapYF8jMIZ9SuL1wPuA3wS5dlQMRGrgrQh/l3lrGzbeD/aXz0D5ZeTwvG7m+3fz+sE1KL+7PqbRbywk+8FWjIUakdd5wl7WrM8odn8QuXDMuec5b9fainVMWKoJa1LEuhfKh4g1Uz37kxoJ/xb8zTXtevZGo5bUQNi32DUV4vx0vnSbqwnf2UOJlDFiDem0XQMPdU3XibZ0cZwKg9DKSwnsiaf6YMu7+i2OVSAV9D4n6Hrd4/eSvOL3rvjjfmXFryZpDPBsT/hWrUINsgS+iOr9IA8DFxG9bBW4nuuBW1Cu9Uay0CbFSITbMjWP+PqBSHl77B9UqLwNeHI2BslyAnAe+CzCF1nxpj2I6IXVIXK9ck1u/jeAOxBuRpshU2P5+miLxLUIv4nFwb3Mdz+Y6Gv5fWqxPIfyWysP8NxxJ/F5fvXvceDzCJ9H+X8Rlqxi1gJcseZE/Bus4ozfjnJFFgYtLH3WHbk6YW31WMMDXHZdmpy6eLwvlqD6fShvAr1qlH7QtnrcA/wAe7sfj253u9/3lzcCvwV6LopBaT9YYfYQ6JeAB0DOA4+vYxpfjXA96E2oXD4aBqvy34Dy22vL4qNFY0HEzyE83ljwz4kijwJ3I3oPyAMg/2v9zF9CuI4Vddct6Do8ZgqDFRn9H4Xmgx3/qkcf64Rj0+Zet/opVTp8fJJJoOmEvWvpGZ7rOZ5FzfwPy97iN5J4+h1OLM+1UFkpuRZLz6Ooiour+M/6eceMc7bhiOfNWbl0jpR52rTFlxg5T3giGBBmcGmxpoh/MtcOtcEXgU9GLC+5vGK5YbogHSYr5/lwmovl5cBvAFe2w94FMQi0V5P+R/8TKu9D9Y/W1tdwuRbLdZxXngH8Y+DpKFW7H/vORqoz97jrvEQ/OD6jWGdjuLK+PS+JQass6h+Lqg8j8l6U30D4VMMDPt7+i+UM0WeDfA+qT+2cefZhoJ6z38djvQJ+jcXy7zKf3UNeSLZwCLnVOdfXAk/rnGPtnLUSxxnEO9dfAPkQ6G+CfHj9wvaFp3RDJ14G8nSE71lvze5EMPDM8y3HqYeTGLT4Y0N9sghLfz9YWbh+EeFZ3XfpoH6wzkP/A/Aa5ruPFWyDs55HfhPVq5MY5PQD5SLwYeB9KH+McN+a2zIUlvAyhNtAnonqC0Bu6YVBtx88GXgzi+UPJBwS299b/Ic9MQjqH7j+APeCvhfkd4AvMJ9diJZv/6ACvQXkGQjfDjx1fXa5Wb5HQF4N+h8d3Dsale9g8g3A/4eJyaUoysvYm/38marTYvkzwMtHSOlh0J8BeSvz2cP9y3NwI8orEPnn9A19lycvYD57b/bd+8tbED4HnBuY70Oovgnh5xsv475tdyvKaxCex3CnqE8Bf3+wJ/Ri+XXAJ4aXRx9F5ecR3sx89uDAMl0P+mMg39ujTz0G7HZCqx3315MJ4bdSwH+QFfn9lePPbXoPwkt6hw9dLN8I/MsRSnIe1V9A5E7ms2XPsgD6FJBXdBZ2/aUshOH+8nKE/zXx7P1HrIjr/7gV0rTXnCvPA/466EWEvwB5V7DP+005zVXa8lrQ/+m3JDpLqyC9jcd92zWtipN+y7qo7ZWbhlYk2qXUaLmc+6KWSDeaSnNFcnghuHr0eFGrL4qNs60qHstJy3wtjUPovqgy0ra0tSylrgUwsnUnIZO4b5ueMJN/jCaiaWWZBAOn3VMYhHbmpXPhUdD/w4luMZXkBqgflvZieQeqf3r0Uk9i4LTz6utFkAXwupyJpWCyvxHVfeSQd8/TH9U56iIl/YAXMN99T96kf7AD/ClyuOUsHscYz7EKafXxGpFfAH58kCLtL99TEXkLqreGMQiZ1FsN/mrms5/u3af2l5eBfg7hFn90CBLm/aP2fRfoq5jvLkfFabG8lVVow6fGTX2td9g7mO++JPKS/TRwR6tPinat4cd1e5D57KsKy33zOlLHU72TVei9mtcPLoL8JPAGxxJVUr47WHFkVnkY+PoBF0HeCrw2SkdUrgTdhsqdoE8tGwudfvAQyN/KUF4Px8IViP6vMgwCx+Lo6Fn3ovwwe7sfPm07Q+DQvT4GXOgc+pWAY0nwwLlzTysahngmXycP32dxv7sHPfFsUXsicoScZzrRQcTT3oHoJiJhjFrlc6KoHH1ulgePw4lTBvHgmzrQKjlE1275JOO6e8/UGDjtnsJAPE5HXscrfp357nn8RKtj/zF52itvyTsRqfIx6ET5uReVv8989ipPdJlhf/PZlxF5DvCilZLu6Y9CoH1z+0EW/iDyfYg82Y9BgLi2PUctEb4J5WUN79nx/vZ2Pwn6NSC/EMbAN/d1+vhr2V/e0KMPHt47R+QW/3shK1jBeeAFqH4P890HRsdp5ZTxDSCvXSsmkfIJK09PeU08XV9UKiGMQQGui+UOi4OXA38O8tS0oygZY6GlBN0F8rXMZ69dH30on4sWy3OsYmVX+Rh03pN3g/w95rOXrRdRI7b57l0I34DIHnAhfyx0dJlrgDfljwUtxCAWuKOVxs8Df5u93Y+c0Lso2g8C9DhyYUU2rJfFzVI5JM8+ciDXrJVDlJ1Ddh2xjrkWPqGwDr6y5pQjp/xC0hklvEIrTEsYRsgpG4JBbv5S0MeoV6vSYivflJbBoXm+cGUJycbAxe/DwD9hL2kd64/BytPuXSwO7gL5bdCbhve/1lhJE24vDq4EfV16Dgt+/izwnNGtYx2sdh9jsfxh0L9ov7iLxsLlwBtWyjkUtdv+8lqEV0dM9Kl+dR/wLcx3vzTpWJjPahbLnwD9AvDLK0cVbzCEr4A8h72EBUl9PMFJDHKI758E+ovAU+LzZa858fF1O/90phWxjs8j+uS8ceH9/m6QHxh1N8I/jyxYLD8DvA90VvZeOJLvYnFwZ9b2vJRgkDVfXQB+YG2wqEcZC+VS51gUK+azx1Ee6VCJqOMIckQl4lCxNJ1JmmmodB3NOnnQTkszrGTqlC0VLtBHlaIh1/VIWXNc3kOrQ80ot8ZoRhp5qCef5ja7rxwqcTyL6hZor0kxSJRZnbbL6kv8PsKXNswy2D/P/eUOK4eDAgxav79/rfw8ciIYzHfvBv7+2vIQ7lcl/SC7XPIjINf6+zp0aIO01cc/Dnwj89kDJ9L28xmr7Tv5ntWk7tTdO6c6Y0Hk+asY34V5C69EubqFTWsMR+fp/8LqfOQ9JzIW5jOY734I5G+i/DjwSdAlqg+CfAbkx1dWm9ld6Xo77yeFKAYqKQvdZSwO/jXwZyBPab/Hmv0L532aMU+vrn8K5GuY7/4E893HB+G7OLhsNY8UYnBclp8Gvmf03YhQP5jPPrOaR+S+rLGgHb2jAnnTejcm/qdKz7Hgu34e+EfMZ7++Pou4MbtUYcJteBC4oXWGLEQJ4KUlEYJ0JR2KGyV4powCw1QfI1Qnn8a5OPXQYWiBlUwzVxRa+puPZiawCs7OtxlkHCfyTaYxszVB6MQYBCzFnX6k8b7YXh3uNw75pzxl+6zyUp7SffLxec2u66PPQ7k5OR79/fnDCC9ivnvhRDGYzx5gsfxGVP9v4KbB/UAyLGaL5RWo7gXHdMeTslWQL4B8e6alpIQ0PU52PZ/B/sG7Ebkc1V/qRHnwEpK3IhHtAK8Gvie7/y2WV6H6fd45PEqfBQifROSb15atcTDIvb5S4H8C+ImV9z0V89nFojGoqQATXgwCOB7ctiaqvj1KZaYZc1j3dfTYenG4WCuIpX3Sh8F3odyQDrLhxWCB8mPs7daTjQXf9fnsPhbLbwT5BKrXJ8bCcWWOoX4qwtOAj+e9uwrGgl8/uLAiPO9QFY07Fnr2Ax/57KE8cGyBy9ziCTCedM8F4icl9Z4tDKXh+w0fjQddglXa5/vc8Ewt67QGzinij8XdOlfnPOvLp3V/oH7NenWMPr5znIFno+kHFGf3LKF6ytM5l6jTY4CvDUIdsGlJ8fVDAD4PfMQzFnwE2a41nsAWoEvk7LuvSnyO/Q8RxK7oaJRXFmJwiOc9IC9ovGhOFoOV9+tzEDmf1WfT/SCF3QsRubbb/QLxVI/HyENIR0nMwSCHcDn023Eae7s189nbEX7WqzuHxsLx1+ezv3xC4OXgw+q7gau7IcAIzDdH4/UBVP5xQ0kcD4P4s9005rN6vRiMkbB30/e9m7IWzY20F8vL2D94I8qnV0oi4Tk761onGMQngb/L3u6/Y757MYFjlYXB4qBCeUXw/Rw/BfVBRF65jgg07Vjw/T6ffQXR5yA8mjEWfLtyryIePIHisRBa+Yq8pKEknsxYKOgHMZPl/R3lrLOr43EQ6TgneA6luy98kbaHsXj++xQNkbCi1PxdHCVOPE4vou2XqETSdA8Wt9IN1V3wOqB0Ds2rp/yBQ8oSUZQ7dZUAtr57JKB8e9JsOgD5nJ+mwkB8eTlKZ6gf+bCBn1mfcakyJq3UoEspUFUkvVwlkcgEWwFPArmjCIPV58dReQF7rVBeJ4/B3u6X0HXs3WSfTfSDWLkXBxWqP+Dv207e3XnnpcxnX+mJQQlGifvlxxA+652jvPU4GnbngBdnLFZgf1mh+tLOvCAhJ8VW5I+Xsjd7YFoMov0q56WbxsA7jgIYNGM9L5YV+8uvA/1zRP4VIufC70GJz9v+8fDomiLm69dnP8fDQLkDkSd1DCtpDL4C8lJnh+YExoLzfb57F8gPZ4yF7ntM5JnsH8zii3gtGQv+P1gA79nksXCoMda0t6BrRP7H8Ya+Eo6L7PlTbbCVe2Ijh545Wr17nlPv4UYnHfx5aereSNk0Vm4SaR1a1DzpaWz73sFPQ4Egm2mpx/ztPO/ep+qJxqKeuvjawcWHQDtNiIGGMFC6UTR8sXmPfrsPkfc620W+/6FrJfeGtqXqxP9Yup409EWFGBz+8JPszb6wERgI70Z4v79tS/pBrFxyK7K27qCRftwZ2+92opyUYDDu//nscdDvB328O2dBMKLMisLqRewfZPQnbkXktuB41+A8/27mu/9pcgyG4V4S+Yh8DID9g8tWcdX1EyBPDI4739zsxbNTho8Af4v57GfXStm4GAgv8dYrioHWwPc36KHqU/xfA7++VsTiY6GL+Q4i3xHtGyIlY8GnH9wL8pqGQr2RY6EKTNSrl6d7iNzdTm46eKjHLO2da6X7TOvArtNwHWxdZcLz7GFHCKbbaNhOG/ri3Hr3fJ1ntRveyYuPq8j55gEJ62rBNMXBVNtbxU0rieLJW/1btc3B1Ty7qY7F9SgN5yzNZBh46udSSXjv8SnE/JQTMSNTGYsqernKXk34LGRKwfIP8MVyB+Q7ijBYffzK6qW2IRjMZzXIq4ALbWeygn7Q9nr2les7W3OJd2x09rYvsDrf1xeD2P9UPwgoi7tfAN7aiuBxWK9OP2jN17esqG6SL4zndp0A6HLZaivc5gVUXnNiGJThXhWNKTfUaAoDBBbLpyHyF8CPckgAroF3kds2Ppq19lx+Hvgh4JuZz+6bBIPFQQVrRakTujCCAfJe0I+MsFAapx/MZ/V6G/nRxFjw6QrPSc9pKqg4AAAgAElEQVTHGWNBg86xr2LvKGzgxo6FMLWCcl+XYNtR9pqeYEefXeJpcbaU8ZjcPecfXO5FH2+T6xEWPnzgnEH3KYMSXyWGDBpB3j5nAuie22mQguO42WsXh+CZCrpnJFxGH3GUWfecYIfMmOPD+75FkATwbf7mhs4bHQMfGbJrLfFMbq4RGLkf5FcjJv4xpYpci8XeLSuX6s3AjQUYHF57oxPS6/QxmM/uQ+TtrYVOST+IHSBbLCtUn9UZRL6zx9rcVZF3NLacx5acfhAQeSPoY94Xn3hWY0cOOvrsdNL6LW183XRoz++r+eZX2Zt9+WQxKM4jE1rf5wgGcA3wUZSbvPOy+y7s9OFozPPfB76a+ewXBkbYSTwrd4Bec1RWzcKgBl7Xk9plun6wN/sK8AvRseDbrYCnsVheEdGT8saC7/0sfBb44DaMhR26B80PX85f7l4Xv/MGHqtV7J5Qej5FAldJDOTjLZfnvFFMkfTFuo09GyINd+smIfwiTic+JxGJpJtVRk99JYABElDeA/2AyFnSyTCQ8vbslv2NDRLa01YW+z7vtsUzCzEAkYeBXyXtnHIKGOjPtEP9FfSDeNpXI3JbfO7q9Ksa2J8Qm/4ynz3A/vJdCN/nHTO+OWv19ZuAfxdRqK8CbgvOQ/75uUb1zo3EqbcIBRhU/neDRK5F5u/V54dAX4HKu9ibMTm2ytPD78IgBr8P+qXNbHe9E5GXrz3+Q2PBPZu/AzyFVRg9vLpSeiyEVhtv9pyL30iJ0eM8guoDILOs1XnHfFVKyF1C5OwzHWlGujEScAhEDC9M2/eZSPo5pNkQjjjuS8NXBwrwDj2fk04ImykwoKAO3ra9H+EdnDxZ9tQT4te2qYJS+AkIv8589thm1ke+jPLhleVLyvqBxAi39Q5UziVDe7X702dA79nYPiP6NpTvyx8zAujtLJY76wWTT56M6rk49p1rnwe5+8yMLY29A8i4RqKPJe4T+QDww5MTurcr/Q1Jeja3viK/MpI1cYrBcT/KB0G/oygQg8gdHDNidOcT7dUPHlqfi9+K8RGyKNZrZvt7UGad+M5ujGNxthqb28E+HQHPfe7qSRPWyOYWapP2Q53VmLrpur810/Pdj3MGykPT04wT3cRAI9Y69aw2W+XxWFU1sDpR8TSNb9tJ/Gl5dSgJtJkPQw9eJ4JBopyt33zP8vo1ZUfuiq4O3Nu8Xp/qCnF/yXGs4hwMjj7/Vma5Tx6D+Qz2l+9E5Nn9+kGIRkhuD/dJQlaA31q/CDe0H8hngSXCrDPmO/3g8CiKXA16A3BvINHbWn2ns472Wq3fty3WkjxYffglMNCA9bCjc4pnvmv151eB/vsGCfP0sliu2j347g1icCP7yx+J6V3H52Yz7EaSoQ9owq7Q1lUuJMZCN23421Hc+/WDDzS4PLdCUYxptHcBT/crCZ6OH1q0KgmFMdAhXMLR7jmQdifRDAOke6+bXixaX+AIXdQAJxEsYkY/SVxzr4cGizgKPRmG0piCHhqIsXpNhYGmjD8By8AKh3tR3lGg/MQm6am2a0uUjdW9whUo12dicIjZI4h+JrMMp4SBfhjkIrCTHQFUgpbG9eJY/2Z7oedZ9DbnntWFPxoBg6mUyDUR9/IjwIv9Z8qaFpDWy+zWtaLoKdsaJ3cSiI3TlTMDp4LB8HQz05D0XKWRd1HsPdiWfwq8HXjk5DDQGcg17feC5x3SxeCNych+XgMC/nPykN7ciukQrfvErzx6X67NeVJvZrE8DBE4Vj/4vW0aCy5xo+v58hcd933xUOAcEVM3AXY+q4fm5Mi5Qj2rgUBkgcO8XM9EnMPAoZWH79Cwqt+zVjyHVPHcpxouR5RihnbergKszkFbjeDio6ohoLQ3vV1DMcpVA4MKP61OiIR8KgxceiaXXiJUhuN2fA17R1ttISUR0t66vufqzAHo8/ytM/P03V+vLEO6k4XBcX/9VIOgdzMxEB5G9UtHHSO3H4TzrFC5ueXxLAHnsOOx/TBw9wgYVImyBdo2ef0Qq08fjyX1E5N3nX5uCpZNufG430TG7/E8+BhIKpbztBgMk8o/xxZhEMa7c81hH3D7tnIrKu9bh9I7IQzk5u68LqeJgcOE4mMZceYD9/2RPRZcK7JcH3xHSG8MPrlNY2En8nIA+EJbQQhp9epXEEkofc1Gdr0yca9lcDk1aVkk5g3pq4+m6xeyNPreKhqph/z/7b1psGVXdaD5rRMZioyMjCw1ISuI+1QKglBgmqIwBVjYNJMxczEaXMVgBjMYUwT3FUVRlBtTBEVjGgPG7zLamMEMNmaQbTEYM8hiKFlgNdBqWq2WVeosKt+1Wq3IVqsyMhQZGWf1j3vzvTPs8dxz7vDe2hEv38t7z9nDt9feZ+119l7LobB6lTxtP+hVA3VJDekXPFXnZ6KaxoxIXy7KgMx6U1OUfgBclTGQysD/y8R7yLyuS5kAlyUxaIWhi9Z3tQzGWyU7uz9EeWCgHb4x2c5/sguqlwVlRlqhuG5phEXrk0EfMnKhLT9uzT+h+Wq2IPzH3vyEy7z+UV3zs3CS8daZAawjfXzeUW+CLAYx0UwZl1JbzD0W5SPs7L6E7daibgAGelm8/ktnEJjDAp+p5o2FdroY5CLgbFyPSWAgcmoefWpjxkIR+e4mLvge8sS2rh0Db0UvwBNVgUCUkIaJuhVlIRZphIgHdkf0EZ/XdCRyD25P7Pi819OOmuAKE+jiB+5oFL76u66PuSdqhgZ0epr3RMBw3jskA9d14paT2opYStA3VMJ4ucZBKGIRgWtD4fVC14bGZp4HfuXSOIPm2ND/vBEMRE7uWQVS5UB95ctRhOPtucNl+dgLX3lbjwxcbUyRA4hG9JGf+l2O4Quneokzz8m0YHY63BMty5n3bYkyMyCDTs++cD1yGDifD4RlF4eVrS6TLwDeMe+TgRnIpcGxsDoGgWeKbz7IHAtu18n38nLLZYCe3LSxcCSY2Xh0jp3dm4Ar03aViue37++UmL5Jx8wjZaZsuMv93rehz1EfIYEZ7v0feITQ6WbBx7Ba34jbHOdnHpc1LgbikYchGIQOHbRcguyt8q4C+V6HgZk6+IoO13Yp26cknIgzaLG6YyMYKP+Q7LqqLneOvPXo3ErgnifEKZune2RQdJSDhIeD3g1yD3A0+QGpetyT50Xzn/iY3vcJeFeizAzIYCBlMZWB81kZkV2R8GNn9tm/RfkvwAcHZvCP3HP6WjAIl+t1NZQ4FpzuijjqH9O5DLg9cW5fm7EQO8wCcB3olZVXFG2zqu80uM/CKxUlI/yKMLyR1XVb7LSU78CDppQn7f19Gqhr6KCGy9Tt8yKTo9c626tux8vRE+WBz5sHBnx5roKBH85ZkDcu6KTWNZjKhM+GTNXyjgTf96i6+uPuBeu7JAZ6Jiqj7idL6a6zZhbPPYT3Ha5aDi6k86DnM9oFwlF3XbXwmWYD8889HDSXU3t71jOeQz5uGnlexH4L72VnOmV7dNVw7dWj3efZJTCI5eN8KObWO2EekYCbOS8DObtp4+NIVOMU+VvgX8/+dmgDcuFUYOU78WiN4rN8BfwWSoY2J4061V5naiM/x6tO56kuDVgatF5/adQxxfm4xBetYW1NPIyb/UK8f5osfNFXYlzrfrUGZpDIZZbeyXh0kv5OmJWJ1pJlKYsgFMGZ1d23xQL1XR4DkSNRGXW7XvDUTYq4DFXLVx+ndZKDC3u0i+TxIXsKoaOuUqatxmvzz0Wsn9uPxU6ACqT5ykuYs0XOgt4zc0vkmEN9L8n259gjCJ9iZ3o726PrB2EglOm+ATsxCDyvkhg4rkuxViWNBd/zI8HKnMRg1W5xssdCgkVRv+OIdUr46R8zR6VqCJpoNmzmn/OK2nfc1rdSSDVxSeKyJdXklvKqn8x60MN9Xcvui0Gq/HErwrsTV3I5lqAyIS+XMlEOY3XS87X47FFWCsLFC1rDlsXgxP7GdkmTA1Hf6ePz83Bjhdu3hWvilxN03zBeRK7rTw6EoyhH08bN3vfnPOWfQy9YJ1NeZwgI98JrxV0Sg259FLGUajqD2t+1e64BfRXCxSjfAk74fbMFZfwY8JdMdv8Hxlu39M5A5R73c6YPBpL4zE4d5zF/eynKo+v7mkHsTic772HQEANN6Y+1Ggt+h9sX/q9yB8JNwAPcirhE+k78jiybDkebelvLia50MEvFFkLirjPVuucoaJKw+A60o+ngu+rI28WxqwLX7L8sfTJDaR2aQfA1ee2L12Q61+57xZez33ARLeGMn7Pr4ScA916SNWxRBlveOcX/DDjjsZSdQziPcqRmmXA5Ed7/7vIemBRLkLlLZ5Zl3/zrXEi7OY1HMJnehXI87jB/L7/LF2jnejogFok8HzzGCa3IoegbQT68549vZ/eFIF9EuCjs6L0ii/WvLgH5CpPpoxY8Reuazv9fb7CFrgxcfg1TAnKEGfjnAxxynzYWmvlcC3K3UzZF/LqDl4Fs3Fioaq2u3yXboxK4puarT5urrIZvxao7narT7D1fR41j683Pa9k2fCIpnp9G/uqoqys4t8sXYsuHk7rzbbWtUQ+fv8fm9b760ahDi6OPgev7xv+bPuea7Wqx9LEKcB+UgU9eaLOCTzMLwVQm/jRXXn39NPOkx3wv/H3aycAlC/ugf3ZDGNy/3baoHJx256VnUT1bkzFt+oilLufC/QZg0ee17HHCMxacY5YAJwCmzvHunAMA5T5Mdi9aMYMhZDaHQXX/+tcR/TnGWx+c74+eP1u3vozoa1p+hX39Vt0Xv/9zxdyyeKxnBnc4nwtdGbT0g+pzvTLhd2MQmA8a9UsZC/V8SkTfVNnXXufbhYG/f9Z2LBQRU+ds34rqX++7M6HtYJumuxNpXyMSfENUc71S86PkcOfRdB7cdMtDw01MTdH3OOb2ueapXVjN22O1aR7Fr7kQUMdnErR4t9g03QG02uHihtv1TLNt1Y25gqO9gRPO4uEzGANpr+ZabRcQ7gRe5znAErOila2x4P9/9bPCYzFzKUu+BVyRYIErGuO22Huoi+P0nXgtuA9ZewaT6RGUh7ROcgflAEBud1vKtuYPQ5dlXByuOgTgMia79+6BQfN3zmnzIi4H8vPtec9xqrPqAkz5rwFDwm3tadCV395/T8wdNhcR6/GADJLdShXE3fiUredNnAEgp4FXAk9hvHWbpy4fA/5j+9ko/gOCTRduypUon2IyvahHBidbY6ELg+ZzRnweBsQx/2cwcM0HvvkvNhb26sp50Jcz3rrOYVSbs9J8Bm75XuuxEPKVVr3wO8xOsjkUOIl7Nnf5MfQpjz6/fK68Y953qj6YmgKZ7LlH3H4GXQpa6yGWUGdnHoSVQd9nLt6x6yWiMPuuJ+P6pTJoycBrGY9OBwZCEVHMYspRTKmrDtoi4SemNIbqOZvgfdF2HGueeX88hMn0+JozuO9e/OJ0OTgLentgIrzV6+fNpT/CEZDH9sSAyERN5MER6Ct9nPMBLITmvpPe8aHc4nYX5FoY7427xznquUQG3s+qf5eJdSi8Cy0/g1MIP8f26GONmNd1BuMtQN6G8EfhuRT/wcDZd88C3juP0dwDA73FORdnywH+Z0zs+ZDLIDofJI6F2e8fgDyB7a1PkuJLNofBzKq4UWPhSOOiZkD7efxYOQP6HeCJ7s0Ejf+r41QsjVeJ4jg1XLvXFXw4xxcPjuPpzXqII2JL0P9RRsrd9Jv6veeePfcNkteWVgzoSF+quE+/X7gvyHwZDGpt+xzbW58LWMdKz28i9/jGiu+62AGIphKF5/6UPSt3zi1ll7r7syEns/49BjwO+PIaM3hGu15RObglGJpQuBl4WnvOCcriM4HPLcggdk33U+iT3cuAh4UHh/NA4M3OuX+WftTOpzreXfnJs4Hf91goh2WQnkKh0wIP8SQGtzMenQpYafcZjEclk93XgIxAn7rnhq1pHYvPo/8K+C/sTN/N9mhBBnJ6/nZilCRDe6F4ZRtpxKSuPcI1o00BQ9FCz4/gpWeAnyB66/ytQ1MOHOM5NhYufK9N5XhjxsKRwGugfUizDc1fAn3ifsdr4wCwJxybeL539mVl/0HMJ5Ir9mb11Wk1z+rfzbxa+qjnpLXrILRPn60yqpmk1TFHV4QIVxnq8DPo8GHpqm8z7rHPF1iTd4t/I5a1Uu8nH7tlMHCI1/yiUyCvSVBQysCgDT1AQq9Py4S/Q3Uh8/79NB6VTKY3gj6+NTbFJSN7/F8EXL2WDCZTUH2h14enXw7CoQmV/6UdhqyxpaY9Fz2Dnd2L2d66awEGsWsWOJ0rL5i5T3GFJXPNmTqzvM6UZvdYEH6IaolI4RyHLkVA9RFMplcwHt26dAbpqUz4rmwtmlMZ5JQ53jrHzvT5iHwDuLJWJgEdv+3P9h2InAL+ZCEGs2f+9aC/Ui83wkD0LsZbn+TgpLg8amwsVJ+Ne9ds1FhI11KVq52eZLwm4cop1VA8YfU86Vub7htapvPVdDPWs688cXu4Ebcu6d4/0SjHdwjbG+ooUL6Lp8T4OZRa36vpPb6Oa5Swp3zn6wIXO1kCA6me3G0K/SvZHt3ZcSUV2iPS96Ad4vTz9bU+kICc7itEz2BnOlpPBvoIhAe35CoqB/LdiKXiB16Z9L5M0GMgLx548u5oTZweRfRVTj6+vcozdj+OxGY+hVT3KWr9Qdja3qMgHEH11UtnMFRqenKJMVDNL2N7dDfwbOC24HYe8HuqESlQ/SiT6eN6aPW3caz1gwyUX6+EGFzdWFimYhUfC40+k41jkLJXaPb39ugUwg3tgx0t6al/3oq/2yBZO6jQOAzR3Kza0igaG1ldG9ERz3fNzbDSvhbxbMZ1xVT2xRn2hZbzbM4TR5skUBdXO8QXkFvb9xJpv6/fQvVpx5EdiAHt/kRA5d2MR19Pkmv3OCDj2kV/+s9f9Rttzs2+aMnwRQivXzsGO7sFyBva80ZUDsr5dplQuSdBbm2NY2Jzlr6hsadzSB45/f4CkPv45+gmv712hznN9th9rT3H+zbD7n3/G0ym914qg6F+xDMf+hjMPs8vZzy6HfSfg9zpft55nkX1sXAU+DyT6YMWa7d+0/2sCDAQeSzwoJWPhaX9JI6F9oHRjWJQfYWU8vN5rxuU6Od4fmvi/Sn3LHp9Hz9E2r9o3vRQtyHamyMDAzKA6xF9C8t1ybHsn3CdRH6A6ukO/fKbTKaXrRcDeSSqT+swFm4FuS2Y93hUgn41fb7ZG9sjZtGq1kcOJrvHgbd2GlPwpXgZ8sUOY/U4RMfiMl0MLVBG5hyGdq/XeOtm4NkoZ9PKc46Fe6H6JSbT0QL1uAnVW6MuZNptfyuTXdZqThyqDCH/OTlcXQdjEDpR49JqP4tI2Tq17LLSCW2LV+t0obitUa38EvKGSLmOMqTxSkYcljpCx/Bpu6upvWZN4eHhQ2K7xeMWKFRe7ZWyJNYrsd4tF0kDMqB1eu5O4PmMt86t9yp04FX2eHQO4atufuLwPrBn/T0G7MxfHa3+ZzI9CvoBkKLeDsJyMPvsqspp09DPnzcYOMayk9ubmEzvvz5yIO9E5DLnOGvJQW2+OIVyQ7QM1esQOZU3hgHkN5jsPmLtrK/5ZbhlL/SMWaTM8eg64IUIZXiuDT2/uBz0S0ymJ7pbUvls3UCWwACeAfK0tZoThyqjeugoNhbqh5M2ikHMz1Xdb9B46xTo91qbdWsOtBueOV1OtX2Ocpt/a2ODqHPvSONwRXWfnnOPY9VhJ7TCnfkOcdQOzLg2rTT3PlZ9LboO0dRWnvW20Njz17yuyXbvIEjI2XnlgyarFk9HH7YcaTs2r1TvVR2eQW1fpJTAS+axnF2rNtcek5x9ZqEVm3vvSn6eJOYZ24RfgvxxTQ5UPZtsW3tRn4XyvLVgoPo2RB7Y3ussITlgdvBC/zRNDuQ64Kft/bgBTwoz2T0Ke77ryg59hKd+ZeAzdz6T3aeh+psBp8Fux/uzfz7H9uh8tI+2t84Bn2hbrxxvUOpzdoHyGXamJwZl4M+nzJDb8B5FrwXPwyCef7ju26OrQbZrQRFc+4tbY6FWzwej+sW5A/QODOSPkXm872QGgOqHmEwvXZjBuslB++1NzljYWAZFYKL2TOTy8fpBEc9etwtKWCv0kbgdY7Z0L9d+JNqb1vec7VbLblgYtHGva+N76BBL1QeTegao6wCGK4xQlYvM66q4dy5LNeSQtA+LtPb+Va5zOb2utd3TB9K4Vn37Uyq/lfYeL+d3fTOo5ftmRL5Gmm+7qsuBMlOB9C2ock+/lridUbvqlXuApACuRbitZtl1yrfTL9kfMNl9wEoZTKa/AvJvvHtd/XIAyPUgP0mSg/HoPCKfcCuEjrmjKqPKw1DeV9m8n8ugdHB0+Zv0K5870wfOH+aOfd6Oty01Z/dSgn48ob7zOuhHQc4597visGrtj/37AJ+Zc+qfgXvfPRFrC7gPCbgZSGhfvIeBf9zmMPgg8Lvu+dczFtpy8HiQDzV8LKYxGI9uQ/l6BwajxkKKwceCTw4m04LJ9F5Mpvd2vC3Jk4PmtXtGs8SxUO+vjRkLRYaWeyF9AfQup9VQaFsWVT0rHpdlqmmRclggmyfKqmVJ05RGI8xgqMxm5zvapi7LAg2LpjbyoB2ysMqg5mbIYcVrWlOqFoLWQ81Rb22EPGp+5rI++upfZdwKsejJf2gGOreKKL9bC4+VvpfDZ3GK3ZOqCOQsxKrXFYF6xVeL49F54EMteXeFwKsp8IDqcZCvzE9BL5/BzvQRKJ+axSsOheVytQlAP5AoCxfK/AgXAgo0Q4o15b4pw+grZnuypkUGAyL9H7pv//PJ9L4IXwEubodT9bCqj6trULkpMhb2/x5vndx7FVlbLwf6Y38R/VSUjzKZHumVQdg6coETTHbvz2T3ZUym/yOT3X/LZPfJDSWmTCjXrZm5GITHaroczOT4TcCn6/0aei645ICXAm9NnAfrdRbe1X4rkcBAeTzwvkqfDzcWXJwnuyeYTH8b+D+B/xvVXeAf2Jn+AZPpfbIYpBgRkseCsDQGaXsXowxSwrrUtc/x6AzwSec+QpdlqhUaD8e+PnHvsyC2vw6HdVI84erEFZHCXf9gXtW2uCLIeIKW07DyxfY2+tzLiMs9kDp4+vaP4vgOd/i7WNmh/W/LYoDcALx8/vrMtUIKhVELrcJST/v67i2C48jtuDq1zin1B/gjRE47+9rl6qhuLLgc4RvzCXV5DHZ2H4fwJYRjtUoJcbmZjYVbEPlCFtOZY+RPOxg0nNg7IkrMZPC3Qd/OZPdIIgMfx5T+n3OaPgj4G+Cyer0lMsak6i7pHWyPSsKukJr99vZZaDMcBzyl/malNe/ri4E/ncclXpyBfyxU97leAfwVyP8G8hHgbSDvnH3G37Oz+9yKpS3MQEJtazBIs8KnMRhvlaCvAq6puVwJzs3OZ+9vM9l9haf8kBxci/C99n67CIPZ578BvI+dvfCC/Y8FlxxMpvcH+btZf3MFcASRArgE4RXAj5hMn5jBIBwdK3csLINB2vMsSQ5iUErng0D5EODf15LjJ0gCn3UJiNKpwIHLka63y8Bt0oEZDs7gJMIzGY/OBl7jQp6Ll5TJnYTXmiSY9mOTARkKV/u68egulHeF+y80ALk/8F12dh8yOIPJFCbTlyEys5B1Hgu8bW5NzZQDfTvo2fxJaO+6fw/ymfnBgbyHjH9xXv09fyW/C5PpsxC+DVy+wLi8FuHayIOqLfszB9of6zbOBeC5IN+eL0C6MYiP5QvKwuOBv2UWUaxw1OUyRP4M+M3ERVDuXJfqcivOYLx1DyK/inJjukw6v/sQO7tPThivdfdIqm+Kv+r0ysFvIvwZk+m9eh0LPqaT3Qcy8wF5RSDvE8AX5wfS4gx8zwSRrs+8YRmEn2dlQvlO9zix123177a3bkb1aw0bOO3XzS07efvz5sGJ1rVNc26zHA0oPc18XWZ5jdRTI4qWL2/1HO4B34YFd73xvMpvvkryvv5osHb87f3Bf5DGx7hZj+EY3AU8k/Fommhuj5nfu7og6CvfYdwlCO8H/Wkda4oc7H12GSLfZTIdz3waDsBgMr0Y1Y8CHwWOeueK5rirbhafteMGdC+8Xl5/jbdOgrw/PAdoQP4B1X8B/B2T3Uey06t7kAuKz3FU3gd8EfTiFgPfHNE+0FeCvmH+WrNDPfUtoHf651nXHF2bEx824zR9XoYbFZLrurN7lJ3p24GvgF7iYXChzwrQ98735Prz1ND2Je+zrt/xPItZ/3Tgp/U5P0sOjiB8fr74Sx/D21vfAf1CPoO9ujwL9PtMdn+hl7Hg7neYTP/FzNG+XpowFo6jvL0yVqGr66ScsaALywYLzLmxe53fxTTngKYq75nxkPpPdfOmVn9XDy00N4W7rqschtDGgQakcXilob4r7fJp/t08BEOlLg63+M7nhvjzFvHkB7VDGU65qubX4CTiOJTjcnzelN0GT8TddxpgQKXd1b+reUrjNfMwDO4BfTbj0U9IdxMQssIt4oKgr3yHcZUwHp0FeV19zSPtE//Osbf3/VHgvXOF8RGBTfG57m8uYjJ9Mcr/ishLa+MK1xxCfZ6QmsydR3Wb7a3zC8jB20FOeRi061QdC/tj8n6o/A0if8zO9H704yboIibTl6L878C/QimcDNRz6KwV8l3+CJUfdpeprTtAXt+eDxzzszT+3p/vL0H5DMi3mEx/oReXTJPdgsn0qSA/Av49cCTAoPJbLgJ5HSkOt1v3BhgMMa63R6dmyqLcVRu3WXIgx0D+ksn0vpnlvx7kdBaDuhzcd25N/sACjth9Y2Q0tw7/KXBx8lgQnobIic5jQTWXwYU6rKdrNc9P9/ews4H9N6g+Ov99orJQ2hsMFXcZzjiUC5bjrbuvDaG2Ne+NcUjh1EcefbU9peweGMxcNfwq49FVWHOyJtUAACAASURBVMoZr38+W9Uncw6FIfsmyPsQ/drcZ2VmXXYvRnnu3PXHA+PjqRnU1nGtyAcZj16zOKfdp6F8KYFBylg4D/wF8FFErmE8OpfRXwWq90bkBai+CuSK7uOu9t0UkZ9jnBTe0vU6qtyf//WLqDxr8TlGAL0WkQ+AfpXx1tms23emx0CfAWwDv5A2D7u48I9n+wGdcvF9lCvD81rtoxsYb/38gOP5caj+FXBRRzkAuAmRx2TJwmT3xaj8cRKDcJ/fDfqxWZ9zW8W6nauDXI7qa+fbB451YAAij2I8+l6nsbAzPQ7637IYCB9jvPXyTXp8CPV9PKXnXXxAWPlGwvv48NtbZ6xhVyBLxeuWJlrGIvc29M6EaiW3N/s6VzscQehbfh97Sr56ueowCAN9IeOtzybWtiRrn1GntIwyFq/fZPcSlB/N3VYsLgOzcXAH8GXgW6j+AJGT81dk1Yc4oBcB90N4BMgTmO0ZO+4d+y0/rZGxoNyE6M8z3rqnlz6aTD/EbBN+CoP2/OIcC3oalW8C30X0RlROInrHzBIKiB5HGSHcH+ThwGOBh8ysYqExEZjXajq2MneH8xS2t77Zi0zt7N4Lkb8D7uOfx7PngbuBr6H6XYQfz6Lr6J2olIiCcgTkUkSvQHkwIo8BfSzIiTQGtH0Az/5/D/Az8/3OLpn4W+DK/blV3OuX/axvYDx6+LCLv93ngXxqJts5clBj8B1Un8K2d+w0OQB8FNWXJjBIkYMS+B7KnyM6O4UvjTmkXf5953PIc+bjpMgfC1UG+iTGHcfEzu4xRP5bHgP9GOOtV67FcyFDUczRoKG+Z6ZA9VvzzsqxSFS+F8fsG1gBXIiVqLF8cxZY0nDmq80VhyPPFKtY4zuv4aSiiWrAulJ7iIYceVZZNRTH4PXU/UcqHksT/u+r7VHtl4HIqxiP/jDZ6lH/v8+nWY6PwubhCF++XfKkx3zdDGZWiL9uKR+1sahtGWpOrk3L/b5c3oPqKYS7Uc4jXATcC2Q0e8Cre/gg9YVNVdFqOgqvvTlQEDkLPHy+DaEfOZhMj6P6n0AelM0gOtdp/Y2IyPnZPrlGBJBqG5Osvq5x1pijhP+J8dabyffLGVJWHgLyXZRjdYf+GQxCzPbZn51/dmwxBuII0ACI3I3qz8wdi7sUgu/vKYpOeWitIG5ge7SoRbH9zG0rTv8OeOeCDL6AyPMrh8BiytFx4LsgDw4y6CYHZ2fx13WKyl2g5+dzwVFUR8D9QC5ZfCzUTmb/E8ajm7opihWLYioD5GNsj17eqxx0l68yZT6InbBsaqBl7brxCETeNAvrR9vhtMtFTksnrPpAdO1xq3R2y5WHtMusllv7WwLuYNTjDsaT54V6ywVLAu34303FVxzuYZpKlctp916eWvdLWKuXT/1X98OlZWlsOg1VD6dmntrmIo5rFmUw84D/GpQ/cshpkSC3TXl3uWeJyX9o/MRO9obKbw7aMnFSyGcwHl2LyOta7jO0IQeu7T0tmW74LpW9vYxXgDwE4cpZVAguR/WI05oj4l+2Nn2zur6flf0ix17VxeRgPDqLyLMR7sxm4JJx38b/2fdH6kqiz0qv7bGoVbdY2p7v6g/Lq0HekihPvrHgcC209WPQF+LygpHKICYHs/8fQ/XYQgxq81czUpHeXNnf2mYgTYVE2/NsTVaVhPkgxrrE5+h57zN9N+j7F2TwXNB3MdktkuRge+ssIs8ETgUZdJODY6APQnkyos9D5NdQ/TVUn4vII4BLFh4LdQa3Ard0HgsC2QxEB5CDaN1TnIp765JylDrmLuB60Kv2iak7DB6u+Mh4Ys7S9p/nteO6lBSXvbShkLqiUojLiudSnpp+Gx2VDimyrqgo3v+Lp76e65t+Hlue4rUd1zZUD6TtJ1IIKPLV+vbBgPMIrwQ+zPYoZlWL+forA8phyEdVqg9D32ArIqvD1EMy4I8ok8rggyC/1xonIolbB6QtB06XEI7+F4+C6JQlSZGT14H8xSByMB6dRPXpwJn+Gfhix3sYOH2feq6vheq8UJ5ej8oLK7GvIe4HM7YoqSqLVwOv3ItL7HoluWoGtQhbrZjIgHwmumAUPMYHcccKd7tnCrmHyT00B+Mt5ofVrlqIAfKvQX4jWQ7Go1OIPgm4089gI+TgPfP9kd3GghKRAweD8JjqJgdpEb1yDmjW7mmGnopFXGg/nMajEuSNMx9kPjcqMZcTGnn1HMuXxqlf3/USWFUF3HA4y02pp+8azSifADNHnORWzMLmT4OBxlabMRdHzZlUE1gkMzgHvIjx1icqe1ZKz2rLJ7ulQzmIhUEqI4OuTFyVpYThS7Ug+q7NYzDj+AaQP0yT3aZFWP1j0DtGY9/FZMU5T7wZZFJRfvqXg+2t61F5JuiZfhlowLqVwsprFXPtX/wxwtPZHp0NzOmhV1tFkixujz4J8nLQ8w6r2ooZROexm9n3DelmoK7nSyBvrclaynyQEt/d7bpu9sr4RTOjTVcGCug7mUwvSZaD8dbNsz3HenuwP9dVDlSva/R7x7Gg8baErYhpcjCZXsJk+kQm08cxmV6MP4oLpIX6S54PYuZVaL5udgrM6CQq7/C/s0r5cZkSScyPzDxIqEusbDLKIbP+ZNzbjLtJImfcVtWsPnQutwMsshicQXk2463PRQZr7BWZb+CUuDf0lpGVni8+sWu8xF4RNH83XzGE4n92ZzBbQb8GmITlLkXWJXJv6tiLjYG96+YLU36ncVJyGDnYHl2L8nTgrv4YiGeskTlPCaHQOijXAU9gvHU641VXzqupOrfx6BMgz5lZYXPm+QEZxOfCk6BP9x5iqcV6zqifSO6biNRXju45ZHvrLDMfizd3YHDh5wSqL8iSg/HoRpDHzA4dSQb/lcvBdYg8s+Gcv+NYSJnXQs/OiBzMYlW/A/j+fN5+E/D3TKZvrWwXCM13RdDYlzAfuBzo+iCFHTSKvhvl5n1t3bfSTrAgaub1YctDoB5EVjE5Dr0d3ykJeWvcsONzLK6BemgKdyXN8XXVgTbhe7QXBncAv8z26KuEnYK6rEYpMZpDsl0Qdj4ausdlfU+JI1oSDhDfP4PZBPk60DeStUlaPfGQE+6JDvboOL8H9OWMR7/bcBY9rBzMnA3/MvDTfhloJoNQHq2/r0J4ytz1SZeYr7544+H/j0dXozwGuHX1DBqfNWMVK9cAv8h469YoA/XUryUHmmIF9C0GU+YD/7Wzvv7nwO3JDFp1lkdly8F4dAvwi3Ah0k9Cf6xUDvgTlCc1xka3sSApcqCh+SYsB5MpqL6LmRukx4C+AXgJ6C8BL0C98bt9ckOX+SAnPBjBz8Zb5xBePl/xz/lI3Tlt9bMLmrbv7WjTue7evR6rc9Np94Xr935LQ+9pOvl26U7SdvzccrhN3RkwtB1FO3U0l2NxT9vE4YCYJtNGPaThKBwXR/E7D246P96zQOJxuO0wBnVjcBPCLzIe3UC681Doz9ko5DsnHSrfYlAG4xGMt94NPBPV09E3wtUT8dLo+9DOBJXAGxqHBUHFtU45heovMd765ErkYLz1Y5SHzx6GCzJwzkEpDBx5tMfiedC3oPIvGW+dYRXO5bdHPwYejvLZmmKyPAYN2W28cVHOg/wOok9hPLojicHMf2vb4XZTDhAy5Kv/OWE8Ojkbz9wdYYDTabZwr05yMFO6ngL8zzO+nrG/SjlQuQd4DcKL5lsx+hgLMTlwMFAy5OByRB4AvB74DMg7UP4a5Ldmh8jk3zCZXj708yYWwi9mSWl8ptcDv9cOC0YlzFYz7JZDQ3KF9WuFqItYCC9cry5rmLpPX2lktaKhOuLOVx1WPm2tcAju1dNAvl5jXYOBhjhW2qvaZlDLC0f/eRTcfAZfR3gU49Fti8vi4OH1Vl2H/sofj74MPBThGmeIP6UxjjRkRWnIncMC05KzShku+RKuAh7K9tb1K+2D7dHtwJOAN6N6rjMDHAzwMWiOkYBVS/SnCE9gvPUf2R6dX+lYGI9OI7wQ5PnAdGkMXJ/VZfjG+Rzzprmz+NQ2TtvTsyd86uzPuzPGbb99MB79AOH5oOedDJpjsDYn6510DzF4jvHotxB+GfTm9jNjiWOh9Zleh/BQxqMPzvc198X9PKpnvHLgYoDcmS4H+miUz++9QVH9OKKfAUbADcBJ4NEd5CuLQcrpzhR3H8ytiiXwZkR+2H5/T8I7+tC+Jd++APXsE6hep449Js1Ty7RPKwb3IeDIw3EyqxY6SNrl1L5z1FUgvCfQg3mPTYyluOvYPNEpnvud7js6MXg3yNPn8UzdezXqZnqfzBaObRUhOc61qFcXVYVnH4vrhC2knXok0P7hGGxvnQSehOirQU7X5KN10lDCr1hdJ+59coDLvdLef04h8nzQX21YflYnB7OH4e8g8nCE6zsz2PtT2+PbN/eIZ2UonAd9Pyr/jPHoWk/bUv1v+ub/2P4t19512B59DvgnCL/P7HDaUAwizwvuQHgt6M8zHl3fgcH3W4pJeCxc5xnzZWRuIzIH+H7Xx8J49FVEXoW4+j0QjEHlGwvLwXjrOyAPRfTNIGfaz5lBx0Lz2Xw7oq9EeMzcV2K/Y2E8ugeRH4TnxGYYWv12uhzIMYSKM3R5NSqvBf6M8RYIdzFzSxabExeaD4TFo0q0G7yze8XcY/8JVpU0Nm9YWpN0BngV49FnB8p/3SOnLCNlRibZvQTkzaCvADm6/LGrZxB+D3jP/PXpesrBLIzdC0DeCtxnobmq+zz1ddA3MN76SUI7VzsWdnYvR+SNwItphltbjEGI5+0oOwgfZDw605nBZHop8PfA8YSr72HmxPnkysf8ZPoW4D8k3jMF/e97HHMw2b0U5A04Q+z1PhbqCwPVHYT3e9rT31jYmT4VmYf9jLfvFoR/muzcfDJ9GPBq4OXAt5m9gr4fynMQXoTyXxF9EuOtGzqM+WQGEtAyfdYSl2ba9vA92f0VkC8GQ85p01O6w2O7M5xfRJrqkRsaYXx0P99QlEBvqDr2w3Vpo57qsuY1YgCq+EPguSM3uMMQ1X4Hwue5IjzUGKjfT2UIc7NsVYfVMcrgJ6DPZ7x1U0DGYvLmui/XuSgJeUKaM+fQuCgS6xorfzkMdnYvQ3g9yEtBT3hlF0f4uqaz6Koc1MZhTTZOg3wY5b1sj06vBYMUOZhMLwJegOrrEHlgOoNc5WfvphL0L0Dey3h0XUDWchToMlFuc/J1j4XJ9BLQXwP5deCBHRm4p5gZ85LZwYqPA19IiLGdxmAyfQXwBwkLndeyvfXBIIPufZaX52S3APkI8LII2/MIT2I8umYQOZi53XkZ8ErQK3ocC80p6IfAh0D/ZB7Sc/ixMAsrGGC8V7l7UH6Z7dH1yXIwy/tboHOvMvxwvqXgcYg8CbgC5QlzH8OLypY3D+lghoz5hquGwnor8B/2FSqHotNUFKXy2d6hDF+oP0eIOnEoJrX8cCtCtagnzVigzSqII0pKo/7VyBJVpawahmzv1kaIwJqi6OKBD2bbnZRXZhv31ELoNTlpIIZl8xpX+3Appn8I+jrGW2cTBbhwTJKQEYYos4xQ2a5JG/oPsURkIbccBpPpCeB5wPNBHwlypC47DllpDlWnrAuIngO5BvgU6FWBeM2rZZAiB5NpATwS5dcRngV6sZsB7fCFNae8jflq//NbQD+D8sn5VoEQk0Vl0vdgDPlqy2c/mT4IeBqqT0LkSlSPRhi0w5jO5pPToN8B+Svgy4xH00EYTKZj0Pfsj4Fa1I/zwBuB359vw+pD5rp+X1Vwj4B+BOXF7eeCANyN6kvY3vqLweVgNkauBJ6D6lMRHtBxLFyQg/Oo/hDhKyCfYzy6eSVjYTI9guq7EBmjWrQCdSBT4EVzRTxPDnZ2Rwh/DnIz6H9C5SjCvwQuAn0m461pkhwswEAyVtCpE8F+PrPVzKeAFzh62m9xin7m+i73vYSrPq6nm3S4TxLq4HpyQDyqeIqZz1UXn/kUzz0p9Ukpw/FKAF6F6tVsb5UZVh3fHp+YL0QiSl5o4isjk2BotVZGrF8p1qpQ+ctnsDMF4VJUn4zIL4H+AsgVoEVctvbk4zzozSDXA99C+TrCXQ6fiOvJIFUOZlbGR6L6FESuBH0wyHHnuPJbHm9H9QcI3wL5JsrNbI9islcmLm5Sr4n1SczCVCZZgmcKxFHQB8xibPOzoJeB3Bs4DnoMlfOIngW5i9kr5f8Meut8T/xJh8ukYRhMpg8AXovqo4ET8zjR30PkA6A3zqKldGCQ9maPiCLgloPZs/jJqL4aeAjCEeBOVL6K8B7Go9uXLgezPh+heiUi/2xmXdbLUe6NyAnQYyDF3II263fRKcitwP8BegPIDbA3f6x2LOxMAX0gwktQuRLhODAF/hr4JOPRXZ3lYDI9AjwL1UfN54rvAldXrOWDzgeSYJqMmS3DZtmd3aPAXyLy+G7KfEhh8SlJOYpinymm0HUts698c8rvqoAHP7ua2X7EOxInl5ji5RP22GsbEuU+5xVLapmL5BNToJbLYDIF9ASz+M5XAJeB/ncgR+eWoXPAGUT+H2anRm9FuA3lzPxVyeYzSLOaMVv9cx+UKxAuQ/VSkH+EcNG8jLOo/n8IU5RTiNyM6h2NxVSKMrxOKcXiXiwoA6tjMJnuW9G3tzaHwazeBWjpUGpXLwezeeUISIHqbHwKJcj5RoQuGwtLYjDkUY+quf4E8CXQR3fTL/BY82JN0/RrkvSijmVH847k27o/tR5dr+9LrHTfiqi8FpEvNCxHhyX18TrUGBxeBsvY2rCsfjQGxsAYbBgDn0Wxf610Z/c4yJeAR9c0n9obTN13Trn3uTr2FVb2pmjDQiiNjfXB18TSMNTp/t5A1yvnCwdLmlbJ5j7H6ib9WtGNgzSuKjXZeBVNx4GU4P5ED9sLH0ij/Ga/VDcdu8pr6vIzHiUinwB+a+6Q1ZIlS4tbDdYxz03L1xgYA2OQmOdyncdMdk+A/BmqT15ItdWkD/tRo7WpAWnHOq4g9V2PrPzkh4i+FuT6JVkRUw8gLOuarvUcMm9jsB4MQt+n7AfvymFZDBbpJ2NgDIzBmjHwBZFOfTCnfF9xArp1N/Bs4NN+x9rVoOo+59aV78UReFua9zu+k8h34nAOvud42BUA3pNv7HoCdXW2hwCfxo+2gtT7/0+g7pIcVB5EpsxcIDyc8db1lT0loVBrru9D99HIo7kqKjwDAU8dSs/fvvtSyvKFUSo9bSg95bvuMwabzQDPZzGXFqH/x+oaehC4rAsuZrFDW0XCs8AYGANjsGEMVuOOejItUP13wNvDCmfolHTIMBo6oayBvFwnD1MtirHrQ5+lmvFc9dVMs5/v+xBX12nq1qV3gbwX+H3Go7uxZMmSJUuWLG18Eo82GXP/4DKFxvY6tjXiye4TQT6F6iW1YOU+/UQyT+L6HG1DuCzX/2PXtK53OdcOONxOaW+oHT59uaYDNvYfVvdN+vTkqA6uZxH5MMo72d4Ls+aTDwifIg2dDOvyWczhdcg3aI6vsD7yTXHMndMGY7DeDHLqmZpPGbFGpDqB7zvPwhgYA2OwuQwkwYQa+iz0eap1cQT6UZAnmt6+UekMqh8G3sP21h2Gw5IlS5YsWTr4FkXoz41Frrf2lwHvQfVE2+t+9ZQz7VPPzaguVWuZM2pJ9XR0wz2OVsxqe5YzR/ixJr5mpJVmRJi9y6UdVq96evtC3tUQfk2TYTMEWssCGHj9HHS10/i7Gl1m//o7gA8A72c8Oj2gbKZstE25d53TkPU0BuaSx3gaA2NgDHpRFHNjAfaZmtEMLgXewSxo/Bo4zlwkAsyBSzei+gGET0fCrHXp+2XL3yrLXpdkDIzBYW63MTAGxiCRwXIcbudcOws19GBU34bw1HpVux78cFj4JCXP2OGXlHqk1L/LAReIH0rpctildu05VK9G5EPAtR43N6tYWa3bas4YGANjcLi4GwNjcGgYxBxup2jYfWvh80Dmu6A8DOS3EJ4GHPHekRpi2XVfzGBYe00s/UXA0wR1PSUP76GTavzYjLxn990EfBz4k0oMUEuWLFmyZMnSIUs5qtXQ2ro7/5krnStAXoPoi1EuHtahdTUKS4o7m1RL4QB17DP/mf/DL4D+KcgNjEfnWSzEkOvEfMqew1xLNMRPrHWRvZwTcan5x07IdinHGGweg1xOKXksuo+3j/YZA2NgDA4gA+kAyzfR+yyTrom8mXxuUer5T6bHgWcBL0F59CxwOI4DLw4Frxaej0qoPdh3W+P67cizeXCkdpCl8Zk0DoU0D6DQzMOjBDYP7DRD+NEM5+e4t53/KYSrQT4PXMd4dC6hX8tAPxWRPne5xlkkP4Ly0lYeigS5TLmujMgqkTqHXB6Evg9Z+o3BZjEoMxjlXp87FstEBl3yLI2BMTAGm83A5x5nVSn9NfbO9HJEnwXyHJQrES4K3xBzlNjlsEro3W/XrFPfN3fIR/U8Ij9G9WuI/CVw49xyuF59a5uKLVmyZMmSpbVIkmB+JNE8mqrl+pSCHK2+/tlkem+UJyI8BXg86CVO1zfO5muCvtX1II3jvqZbn6Zip9rWPVuHbxxubMTZpSVwG+i1IH8Deg3jrdsDFuCU1VLM2Xru68VUK1KKRadIzCPX6XPq/SnX5lrYUlapxmCzGAz9mx6uXWSc5V5rDIyBMVhjBouceu7r3Xi/aTI9AjwIeDSqv4TIw1AdeXW5lr4n8YMgVaXOp3prpRBpKoCyHyllLyKNtq9v6aEVRbH5mnmWz93AjcD1wN8CN4CeYrzVl1/M9evv9a9Pbr37qL8xMAZDs1lG/YyBMTAGa8BAVgBhiAbHnHlfDjwMeCjwYFQfMPtMGkqjxxH2nmJXURRb3zVPRVf3ENLYC1lVOCvd0NzLiDacjO85Ci9Bf4rKTxBuAv0RyI3ALUt8lXxQUugAw7qVta71MgaWLFmydEBTyOF2aCNl15Tjdic3z7zvZwdjHgDcD/hZVO+DcAXICBix+j1yZ0CnqJwEPYnI/wXcMv+5tXLwhJ77aJG8+gzzaPsULVlaj2Rj0RgYg0PM4LCFGolbCHamBcIR4N7ACNVLEbkUuBfwM8Bx4GKUEwjHgKOgx1A5Anq0vZeQ88C5+c/ZmQLIWdAzKKcRuRv4B+AuVG9H5A5gyuw1Mh4n18MyWBX75dalOvAPYzIGxsCSJUuWkhTF0KGCHA17WVbJZWr9ufnMnYVPmSt567DaWfS08UFaQS3alhSL6brzMgbGwJIlS5ayFEXf6roITJKh1fgQiuE6Trp9KMHr0K5F6tDHq+Y+tzT0rQyvun+G4mgMVstgKKbLHkvGwBgYg0PAwPXqOfeouO/+WCSOIrIC7xLFI8U6WkbuJ6FdMQauvGKuhoqIQp7iaBjyHJrTYUFQJN6fWn5XBqGU69Q9VGffPWVinVOYlBmyjTE4UAx8ZYU4pHw+5ENtyDoYA2NgDDaHgSVLlixZsmTJkiVLfq21+oPjbzyfF5HPioz8i8jndMiv+V3Otal/pzL1af2h+sTyLRL6lsRrfLx8dWXJDIqEfMmQZSLymztOUq6N8XfJqjHYbAZkjO3csUCH8Z9aj9w5xBgYA2Ow4QzWIYTfsg68DJFvl9dLq+Q7FAMzbVuyZMmSJUuWOqVFtd1UjT5Xu05ZSfRZ5yHyyc2r6KHfWDMGxZrI9yrrZAyMgSVLliwNkvqwKIYOu+TmcZBT1zbGTqAPdbIrNe8ci/AQDFYpUwfdDYwxMAbGwBgYA2MwyOp5E5W+vi1oOfv2+uqHYg2ZrnsdU+W7LwbFhowVYzAsAzZwXBgDY2AMDiGDXIfbq3LIvIhFadlOv1Py7xZ2cDUrjZy69unzzvY+WrJkyZIlSxu+gi56uKbo6fNU7b3ouf3FQGxXmee670tcFoNiYLaFMTiUDLrUuVjx+DIGxsAYHFIGzcgsZaCgkONqV6V8zql9TrybeYacdEPYsXfIUXjXtqWW28wjFsEmVKdY+SmcidQr1ueua9eBQUp7Yk6Zi8T2+xikyFSOg2hjcHgYhJzmx9pKIgMC7EPOyEm8J8V5eZkwhxkDY2AM1phBl8Ms6xrqiw2p06YlY7hcjgeZtzFYDwardutlDIyBMdggBlXtt3TcWHq027LxXen4rgzkFfuezPvLxPxD9SbSjtQ6lB5uoXxILCfUyV3zKhPaG+v3MqFfh2RARF7JlL3YPTkykVIf34o0JKvGYHMZpFwz9IOryGCX0gYy50RjYAyMweYw6HTzMiq46rw2NRkD42sMjMEy2mwMjIExsDlxMGfOllbDrjhgdRuq3GKJdSyMgTGwudQYGANjsK4M+nS4vej9vgMui9atCrov9y2hfLu641mWmyHox0F2mSHI67Y3rU83PpuajIExsGTJkqW11IKLnvPrkk+xwPcHZWWxztZFW2EaA2OwHgwKY2AMjMHhZlB1uF0tKMfxcp9Wuj4bOoQFIJXLqq0P5szakiVLlixZstSrohhSAkOvU3NeZ+ZG8ch9Hb2uClDMT1LIN1vqa/mY30VXH5H5eciPEwnfLYtBzLddrK4xWQyt5MoF8iwSx5Mx2GwGOX5byRhTZcDSEKtvrM2p+aVuSTEGxsAYbAiD6g2pbkqq9/mOg4cc3Mbcs7j+LjzXV69NPWruO6qOp+2proBiR9ub3xf43RM1+yfHUTGO/Jt9Vv2+8NxXBGQh1qeskIErpnAR4BNyAZSSv08uQjLlkusiUK/c/jcGm8HA9SApIuMz1ubC02bX/1Pn5iJxfmmWU0bKMAbGwBhsDoNOmvU6Jjuybq+UD0pfFYekb42BzRfGwBgYgzVnUHg0UALap09bJeP+mAYcW72HHiQ+bTmWT6y9uYB9GryvvFjeRST/UHti98TKLRL7qFgygxiPIlFuiKy8XPUvEmSPSPtz5M8YHAwGvjxS6poz/8XmiBjL2LgvEud2Y2AMjMEG/pSMJwAAEahJREFUM/AdZrmQcvYRplzfda9h7t5GS2npILsHMTkxBgeFwaLRGfo+RLjMQ4nGwBgYg/VmkGxNW5dUbGjexmBzuGzy9gZjcPgYDOkg/TDPicbAGBwaBi6H2znaauik4rq7iOkrz74cji/j/pxT5F2sv13bsgmukTYtGQNjYDyNgTEwBpY2WLO3ZMmSpU2cY42BMTAGhyg1/SiWHUFsgvWwjzquwrl21zJXsXdi3VZvywqLWBxAdsbAGGxqW42BMTAGK6p3bmi7nFPCRY/16JJv0VN5XVceRSbfYgl9VixY12JgBqlsUk6z5eYdOyW3CPM+8jUGm8dgkXHbpd6rei4YA2NgDDacQWqFco9c58RXTjk+HqtvztH1FFc4KfXrqgilbIqPuTDqorQVHRXiUN+vgkGK49DYPYswyOGR4iaoq0JlDDaHQaicvuaDLv4pi4y6pbg+y3mWGANjYAzWlIGQF7oP8kJp9f19Tvg41305nZbbzqHyid3f5f+5DFLlANJDC/XBoGs+XcJHLuoqaqhxYww2m8GiqUv9cjgvUt+UELDGwBgYgzVn0Aw9FQs/FQrh5guNVwSui+VFQn1KwvGBQwpiKPQfxMMFQjgMD5HrfGETfXUOhSl0tdv3/1Susba76hpqT58MquXF+iQ2UEODLda2MjLgXPcTkDES8jMGB4dBl3nOxyBWF1/eReC+IqMfyoSFpDEwBsZgwxhI4qTZ16p+Ue121a5ohmpbzoGV0LUplreUFU0XK+QQ1p0uDEhsS2jxkGvlaioUXeXVdT/G4MAxSMnbt/DNqWduXyxq8e37TZQxMAbGYH0YJCuF65aKNc3Ll3exwjqsmsMQDHI343bZA7fKfI3BwWQwBIeh8+w7X2NgDIzBhjCIhfDrunrvYlVbdR6rKrvP+1fBwVf+QQ4PaMmSJUuWLFkaYMW/LvlsUptT8i2WUH6xBnVYl/KNgTFYZwasAQOMgTEwBgeLQcj1S1efhUXgdxfXEb58fH8XkbaFfhbJs8v3qUfiQ58XGfmFeMf45tRpSAZFTwxibg665lkk9lORMZ6MwcFgwACyn9q23MXgIltGCmNgDIzB5jMQNvu1b6xecLhfaS5yRP6gMcDkwBgc8nYaA2NgDIxBNgNpaI+hEH6+4+Iuvz0seG1MC049JbRI3mUiA187IS88YpmYb4hjbr6hPFOErGs9+2Tgum/RvEPynsIilQGZfEOn3ozB5jHIWcSVA+RJRl65C+/SGBgDY3BgGCwUDi5nL86iobd8dUip8xAnbZeZUiLULJJnDttiwT7pi0Hz76LnMnL5F0tsvzE4OAyKnr8veuqPlEhUXSLrGANjYAw2jIFkrKBTrYA+/2ep2nmonNyILESskCHHlzELiM/fW8gyUWRa+fD83cXLe5nRl6kOiQmwLwdmEOvXmB/IWN+HyioDnEhkkWKtSvXNZQw2l0EZKTs2XxWRcZ7a3q59ErOupPiAMwbGwBisMQNJME3mhtEacm/gujvcZgGhSa13TBhy6jh0WhaD2IDKGVh9s0qtW67sGoPNZdCVxVAuypY1/o2BMTAGh5dB0Mq0rPuWld+mlL0ufW/+EY2BMVh8TiwOSD8aA2NgDDaMQSiE37p0xqrrclBOR9nJV0uWbNwOORdsUr7GwBgYA9MN1m71sIq6FRteVt/1WuY1Xes5ZN7GYD0YpPimLTreH7pmWQwW6SdjYAyMwXoy6PTAT50Mh/jtc4btco5L4Foy8+pyf2obXExTnVfTY15Fh/qmnLRaNYNQu3IY9MWTAcoyBpvHYJljOPUB1Ge9MAbGwBhsPANLlha22lmyZMmSJUuWDsGDvyAezq9LOLmYRY6IZuyqY+jzLmFyIOwbLcVfWpHA1VXXWN4FaT7jCtJ8RxYZ/Z/KZNkMUj4rMuuUyjZVRhdh3pWrMdgMBjn1TM0nxdqQE46srzyNgTEwBhvMwBfCL+fYtW2utGTJkiVLlixZOiSp6DGfPjyVryOTkLWt7/LMxU7/0S4O2lgzBpvNAOsrY2AMjMG6phSH20OmZZe7LpbK1HjKQ+Sf61x9qLoOzWBdy16XZAyMwWFutzEwBsZgDRgMET85Z99SLN9i4DYdlpVMYQyMgTEwBjYnGgNjcDAZxBxup2iXfWugptVbsmTJkiVLliyZptpL/sVAdQ6dIsq1gBYD1bcYgF3Rc58MyaCvPbApluo+8u96Gt8YHCwGi4zpoue5gx7bZwyMgTE4gAxyJu0yMtGnuFNpfl/Q3iMUyr/IyN/3IPHl1fwpCbv6Scm3JO7E08WAxPaVjrpC3NkmlftCdSgT8vTJyrIY4LjP125ff5UBTiVxV1FE2liS5i4hxdmqMdh8Bqnur1zflZlj0Td2ysCckDp/dKmDMTAGxmDDGAjr9Zr3oL52zmmXMbDtB5YsWbJkydJaphSHsUSsQ6lWxFzn3qlWgZxwOCmWB0gLN9c1HF2qY+DU9nQNs1f03C4GZpAaJjBmpSIjnxwGOau5XMuZMdhsBkP/7uPaRfgWK2izMTAGxmA4Br0plfSR6UAK77rltynt3pT+3sS+IkHBMAbGYF3HSGEMjIExMAabpHQVA+dV9Hi9pfVXLIs1LaswBgeCgSVLlixtTAo53M5x1Jyactzu5ObZ9fs+y1rlPevc1mUysGTJUr/JxqIxMAbG4NCk4pCVawz8dSkO+YA3BsbAkiVLlqIp5nA7R8NellVymVp/bj6rXm2k9MGQ9x/01WCKxXTdeRkDY2DJkiVLWSvqssMkWXryKBPK6zox57arLz6pder6erXv/sxlUS5wf9lDu/pgUC4o76ntSDnQ03eUImNw8Bj0Pe5XMZbWtRxjYAyMQc8MJDKJVi2FrtVyGbjflY/vOpeiVSYos4VHaQ1ZMcvI/SS0K8bAlVcR6bzC08k+59o5yl6oDkVEyHyhHXOUgiEY5CrMZaRfUhTo0jNGYtxiTMoM2cYYHCgGKRN7Kp8hFPUUpbnPOhgDY2AMNoeBJUuWLFmyZMmSJUt+rTXkxDo1RJ/rsyIj/4I0p5c5+TW/y7k2N1RejKlP609xdE2k/TmWFt81oXBpBL5bFoMiIV8yZJmI/OaOk5RrY/xjYeKMweYxIGNs544FOoz/3JiyOYEYjIExMAYbzGAdQvgt68DLEPl2eb20Sr5DMTDTtiVLlixZsmSpU1pU203V6HO165SVRJ91HiKf3LyKHvqNNWNQrIl8r7JOxsAYWLJkydIgqQ+LYuiwS24eBzkN4US7TyfoXfPOsQgv05H4MmTqoLuBMQbGwBgYA2NgDAZZPW+i0te3BS1n315f/bCOcZfXvY6p8t0Xg2JDxooxGJYBGzgujIExMAaHkEGuw+1VOWRexKK0bKffKfkvM+zgonXPqeuizr03aVVmyZIlS5YsHbpUDHB91xO4RU91bGrvRc/tLwZiu8o8131f4rIYFAOzLYzBoWTQpc7FiseXMTAGxuCQMpBGpqEIBCHH1a5K+ZxT+5x4N/MMOemGsGPvkKPwrm1LLbeZR6h9sTrFyk/hTKResT53XbsODFLaE3PKXCS238cgRaZyHEQbg8PDIOQ0P9ZWEhkQYB9yRk7iPSnOy8uEOcwYGANjsMYMuhxmWfTwwzKTvb40hpvG8SDzNgbrwWDVbr2MgTEwBhvEoKr9lo4bfTGcy8Z3peO7MpBX7Hsy7y8T8w/Vm0g7UutQeriF8iGxnFAnd82rTGhvrN/LhH4dkgEReSVT9mL35MhESn18K9KQrBqDzWWQcs3QD64ig11KG8icE42BMTAGm8Og083LqOCq89rUZAyMrzEwBstoszEwBsbA5sTBnDlbWg274oDVbahyiyXWsTAGxsDmUmNgDIzBujLo0+H2ovf7DrgsWrcq6L7ct4Ty7eqOZ1luhqAfB9llhiCv2960Pt34bGoyBsbAkiVLltZSCy56zq9LPsUC3x+UlcU6WxdthWkMjMF6MCiMgTEwBoebQdXhdrWgHMfLfVrp+mzoEBaAVC6rtj6YM2tLlixZsmTJUq+KYkgJDL1OzXmdmRvFI/d19LoqQDE/SSHfbKmv5WN+F119RObnIT9OJHy3LAYx33axusZkMbSSKxfIs0gcT8Zgsxnk+G0lY0yVAUtDrL6xNqfml7olxRgYA2OwIQyqN6S6Kane5zsOHnJwG3PP4vq78FxfvTb1qLnvqDqetqe6AoodbW9+X+B3T9TsnxxHxTjyb/ZZ9fvCc18RkIVYn7JCBq6YwkWAT8gFUEr+PrkIyZRLrotAvXL73xhsBgPXg6SIjM9YmwtPm13/T52bi8T5pVlOGSnDGBgDY7A5DDpp1uuY7Mi6vVI+KH1VHJK+NQY2XxgDY2AM1pxB4dFACWifPm2VjPtjGnBs9R56kPi05Vg+sfbmAvZp8L7yYnkXkfxD7YndEyu3SOyjYskMYjyKRLkhsvJy1b9IkD0i7c+RP2NwMBj48kipa878F5sjYixj475InNuNgTEwBhvMILZHcR3Tsvcr5u6rtGTJkiVLlixZOhDJ9b49tDdnkbA0NL4ncH1KOLyUkF6peYa+C+3zi+UPaaHxIBzqrky8loR8S+Jh9VLLLUnfw9g3AzIYLHJ9mfl92dO1i+ZtDNaXQR+L12W1axnXGgNjYAw2gEHIfFkkXBszbS5qUiXwfc69ZN6b+gq6SCg/5RV/roKfy6Dr63Nfv64rAzI+6+uaPuq07PuMweYwyBl7OfN4kdG+IiPvIdgZA2NgDFbAIDcyyzr6DFx2stfPlixZsmTJkqVDmbpuroxtRB/id4r7i1C7cv+fs4KI1TX0eUpfpKxeUq8L9XeovikrkWUwIIFBjqU05xBUjEGK3BSJbYj1nzHYHAYph8N882nKpvpUqwSZ9Uy1pqQ8D4yBMTAGm8Ogl9d/0UIy8urj9GuK4tE1z1wWqfcucpIq5WGZIyhFx7qyZAapJ+m7KBkp8t01XxbI1xgcPgahB0tXBrEFcuocmrLQNgbGwBgcDAbJmce04L6sQLGVeW6Hpigii1rquipCKQ+0Th2auQJKfWimroCWwSDFcWhfgyu0oltkRdhl4WMMNpdBykJu0fmgi3/KIqNuKa7Pcp4lxsAYGIM1ZeDboxgKl5YTSqvv73PCx7nuy+m03HYOlU/s/i7/z2WQKgeQHlqoDwZd8+kSPjLnni790nVcGIPNZrBo6lK/HM6L1DclBKwxMAbGYM0ZNENPxcJPpbg/aeZVBK6L5UVCfUrC8YFDCmIo9B+kufwpMxiF6l4maPuhMIWudvv+n8o11nZXXUPt6ZNBtbwUlz+hgRoabLG2pbpriYVxKhMHsDE4WAy6zHM+BrG6+PIuAvcVGf1QJiwkjYExMAabyyApLbKHcd1OChc9t/UgpsLqaQyMwVowKDaMf2EMjIExOBgMUsK+5WzWDu35KQNlhe7POYWb6r+RhDaVie1N6bxYvWL1Sd1bGeLl6/MQ15L0fWdFQt/2yaBIkIFcX5yu8spIeTn9FetLEsaUMdh8Bl0Ox4TmzpwQq0TmxqJDO5uWkyJxnjcGxsAYbAADn1LgUxJ8UUtSXmemHnoIRW5xmWmLhjLqetXty9vVNgLtzql7EVCSywjnlHx9/ZD6atjFF48sFIE6+Ezn5cAMQvUNKfqh/RtlpL5dZMRXr+bY8ynDPtk1BpvLoPQ8QMpAPVPGdGgvb4hnbDtAkTCnQXzriTEwBsZgMxlYWjMz9WGtj73qNwaHhcG6bXspjIExMAbGwFdezKFsjg+/HGfdqfnmOsh1/e3LK8WJderrVF+5se9TWeb0V6yePoZNq0iKj6iUPhuKwSLXpchYqtsEIjKa0m9dZN8YbC6DWFtyWcbqHNtyUybwzmGeU2djYAyMwZozyA3h50rrGtIuxw3MQU2LHJE/aAwwOTAGh7ydxsAYGANjkM1APJqkS8EqA9pn8zcLXhtb8af4V2PBvMtEBjGNvExgm5K3j19sFVR2zDNFyLrWs08GrvsWzTsk7yksUhmQybcIyKgx2DwGOYu4coA8ycgrd+FdGgNjYAwOBoP/H9C6pNnYpJkfAAAAAElFTkSuQmCC;movable=1;resizable=1;rotatable=1;deletable=1;editable=1;locked=0;connectable=1;clipPath=inset(20.41% 0% 21.01% 0.67%);" parent="1" vertex="1">
          <mxGeometry x="170" y="180" width="73.33" height="24.36" as="geometry" />
        </mxCell>
        <mxCell id="qe19Klz4tE8ld2L98A2y-14" value="" style="group" parent="1" vertex="1" connectable="0">
          <mxGeometry x="350" y="220" width="120" height="20" as="geometry" />
        </mxCell>
        <mxCell id="qe19Klz4tE8ld2L98A2y-1" value="" style="shape=image;verticalLabelPosition=bottom;verticalAlign=top;imageAspect=0;aspect=fixed;image=https://apache.org/logos/res/spark/spark.png" parent="qe19Klz4tE8ld2L98A2y-14" vertex="1">
          <mxGeometry x="39.95837669094693" width="38.459999999999994" height="20" as="geometry" />
        </mxCell>
        <mxCell id="qe19Klz4tE8ld2L98A2y-2" value="" style="shape=image;html=1;verticalAlign=top;verticalLabelPosition=bottom;labelBackgroundColor=#ffffff;imageAspect=0;aspect=fixed;image=https://cdn1.iconfinder.com/data/icons/operating-system-flat-1/30/ubuntu-128.png" parent="qe19Klz4tE8ld2L98A2y-14" vertex="1">
          <mxGeometry y="0.7999999999999999" width="19.199999999999996" height="19.199999999999996" as="geometry" />
        </mxCell>
        <mxCell id="qe19Klz4tE8ld2L98A2y-32" value="" style="edgeStyle=orthogonalEdgeStyle;rounded=0;orthogonalLoop=1;jettySize=auto;html=1;" parent="1" source="qe19Klz4tE8ld2L98A2y-16" target="qe19Klz4tE8ld2L98A2y-9" edge="1">
          <mxGeometry relative="1" as="geometry" />
        </mxCell>
        <mxCell id="qe19Klz4tE8ld2L98A2y-16" value="" style="shadow=0;dashed=0;html=1;strokeColor=none;fillColor=#4495D1;labelPosition=center;verticalLabelPosition=bottom;verticalAlign=top;align=center;outlineConnect=0;shape=mxgraph.veeam.2d.file;" parent="1" vertex="1">
          <mxGeometry x="170" y="250" width="20" height="30.8" as="geometry" />
        </mxCell>
        <mxCell id="qe19Klz4tE8ld2L98A2y-42" value="" style="edgeStyle=orthogonalEdgeStyle;rounded=0;orthogonalLoop=1;jettySize=auto;html=1;" parent="1" target="qe19Klz4tE8ld2L98A2y-18" edge="1">
          <mxGeometry relative="1" as="geometry">
            <mxPoint x="430" y="265" as="sourcePoint" />
          </mxGeometry>
        </mxCell>
        <mxCell id="qe19Klz4tE8ld2L98A2y-17" value="" style="image;aspect=fixed;html=1;points=[];align=center;fontSize=12;image=img/lib/azure2/compute/OS_Images_Classic.svg;" parent="1" vertex="1">
          <mxGeometry x="357.58" y="240" width="69" height="64" as="geometry" />
        </mxCell>
        <mxCell id="qe19Klz4tE8ld2L98A2y-18" value="COMPOSE" style="dashed=0;html=1;rounded=1;fillColor=#DFE1E6;strokeColor=#DFE1E6;fontSize=12;align=center;fontStyle=1;strokeWidth=2;fontColor=#42526E" parent="1" vertex="1">
          <mxGeometry x="464.15" y="255.39999999999998" width="70" height="20" as="geometry" />
        </mxCell>
        <mxCell id="qe19Klz4tE8ld2L98A2y-21" value="" style="editableCssRules=.*;html=1;shape=image;verticalLabelPosition=bottom;labelBackgroundColor=#ffffff;verticalAlign=top;aspect=fixed;imageAspect=0;image=data:image/svg+xml,PHN2ZyB4bWxucz0iaHR0cDovL3d3dy53My5vcmcvMjAwMC9zdmciIHhtbG5zOnY9Imh0dHBzOi8vdmVjdGEuaW8vbmFubyIgd2lkdGg9IjE0LjAwMDI5OTQ1MzczNTM1MiIgaGVpZ2h0PSIxNS45OTI5MjI3ODI4OTc5NSIgdmlld0JveD0iLTAuMDAwMTQ5NjA4NDAwNTMzOTA3MTIgLTAuMDAwNDYxNzIyMDgzODU1NDIwMzUgMTQuMDAwMjk5NDUzNzM1MzUyIDE1Ljk5MjkyMjc4Mjg5Nzk1Ij4mI3hhOwk8c3R5bGUgdHlwZT0idGV4dC9jc3MiPiYjeGE7CS5zdDB7ZmlsbDojNDI4NWY0O30mI3hhOwk8L3N0eWxlPiYjeGE7CTxwYXRoIGNsYXNzPSJzdDAiIGQ9Ik0xMy42NyAzLjczNkw3LjM2LjA5NmEuNzIuNzIgMCAwIDAtLjcyIDBMLjMzIDMuNzM2YS43Mi43MiAwIDAgMC0uMzMuNjJ2Ny4yOGEuNzIuNzIgMCAwIDAgLjM2LjYybDYuMjggMy42NGEuNzIuNzIgMCAwIDAgLjcyIDBsNi4zMS0zLjY0YS43Mi43MiAwIDAgMCAuMzMtLjYydi03LjI4YS43Mi43MiAwIDAgMC0uMzMtLjYyem0tLjg3IDcuMmwtMi4yLTEuMjd2LTMuMzRsLTMuMjUgMS44N3YzLjhsMi45LTEuNjcgMi4yIDEuMjctNS40NSAzLjEtNS40NS0zLjE1IDIuMi0xLjI3IDIuOSAxLjcydi0zLjhMMy40IDYuMzI2djMuMzRsLTIuMiAxLjI3di02LjI5bDUuNDUtMy4xNHYyLjQ5bC0yLjkgMS43Mkw3IDcuNTg2bDMuMjUtMS44OC0yLjktMS43MXYtMi40OWw1LjQ1IDMuMTR6Ii8+JiN4YTs8L3N2Zz4=;" parent="1" vertex="1">
          <mxGeometry x="560" y="220" width="28.000000000000004" height="32" as="geometry" />
        </mxCell>
        <mxCell id="qe19Klz4tE8ld2L98A2y-24" value="" style="editableCssRules=.*;html=1;shape=image;verticalLabelPosition=bottom;labelBackgroundColor=#ffffff;verticalAlign=top;aspect=fixed;imageAspect=0;image=data:image/svg+xml,PHN2ZyB4bWxucz0iaHR0cDovL3d3dy53My5vcmcvMjAwMC9zdmciIHhtbG5zOnY9Imh0dHBzOi8vdmVjdGEuaW8vbmFubyIgd2lkdGg9IjE0LjAwMDI5OTQ1MzczNTM1MiIgaGVpZ2h0PSIxNS45OTI5MjI3ODI4OTc5NSIgdmlld0JveD0iLTAuMDAwMTQ5NjA4NDAwNTMzOTA3MTIgLTAuMDAwNDYxNzIyMDgzODU1NDIwMzUgMTQuMDAwMjk5NDUzNzM1MzUyIDE1Ljk5MjkyMjc4Mjg5Nzk1Ij4mI3hhOwk8c3R5bGUgdHlwZT0idGV4dC9jc3MiPiYjeGE7CS5zdDB7ZmlsbDojNDI4NWY0O30mI3hhOwk8L3N0eWxlPiYjeGE7CTxwYXRoIGNsYXNzPSJzdDAiIGQ9Ik0xMy42NyAzLjczNkw3LjM2LjA5NmEuNzIuNzIgMCAwIDAtLjcyIDBMLjMzIDMuNzM2YS43Mi43MiAwIDAgMC0uMzMuNjJ2Ny4yOGEuNzIuNzIgMCAwIDAgLjM2LjYybDYuMjggMy42NGEuNzIuNzIgMCAwIDAgLjcyIDBsNi4zMS0zLjY0YS43Mi43MiAwIDAgMCAuMzMtLjYydi03LjI4YS43Mi43MiAwIDAgMC0uMzMtLjYyem0tLjg3IDcuMmwtMi4yLTEuMjd2LTMuMzRsLTMuMjUgMS44N3YzLjhsMi45LTEuNjcgMi4yIDEuMjctNS40NSAzLjEtNS40NS0zLjE1IDIuMi0xLjI3IDIuOSAxLjcydi0zLjhMMy40IDYuMzI2djMuMzRsLTIuMiAxLjI3di02LjI5bDUuNDUtMy4xNHYyLjQ5bC0yLjkgMS43Mkw3IDcuNTg2bDMuMjUtMS44OC0yLjktMS43MXYtMi40OWw1LjQ1IDMuMTR6Ii8+JiN4YTs8L3N2Zz4=;" parent="1" vertex="1">
          <mxGeometry x="560" y="256" width="28.000000000000004" height="32" as="geometry" />
        </mxCell>
        <mxCell id="qe19Klz4tE8ld2L98A2y-25" value="" style="editableCssRules=.*;html=1;shape=image;verticalLabelPosition=bottom;labelBackgroundColor=#ffffff;verticalAlign=top;aspect=fixed;imageAspect=0;image=data:image/svg+xml,PHN2ZyB4bWxucz0iaHR0cDovL3d3dy53My5vcmcvMjAwMC9zdmciIHhtbG5zOnY9Imh0dHBzOi8vdmVjdGEuaW8vbmFubyIgd2lkdGg9IjE0LjAwMDI5OTQ1MzczNTM1MiIgaGVpZ2h0PSIxNS45OTI5MjI3ODI4OTc5NSIgdmlld0JveD0iLTAuMDAwMTQ5NjA4NDAwNTMzOTA3MTIgLTAuMDAwNDYxNzIyMDgzODU1NDIwMzUgMTQuMDAwMjk5NDUzNzM1MzUyIDE1Ljk5MjkyMjc4Mjg5Nzk1Ij4mI3hhOwk8c3R5bGUgdHlwZT0idGV4dC9jc3MiPiYjeGE7CS5zdDB7ZmlsbDojNDI4NWY0O30mI3hhOwk8L3N0eWxlPiYjeGE7CTxwYXRoIGNsYXNzPSJzdDAiIGQ9Ik0xMy42NyAzLjczNkw3LjM2LjA5NmEuNzIuNzIgMCAwIDAtLjcyIDBMLjMzIDMuNzM2YS43Mi43MiAwIDAgMC0uMzMuNjJ2Ny4yOGEuNzIuNzIgMCAwIDAgLjM2LjYybDYuMjggMy42NGEuNzIuNzIgMCAwIDAgLjcyIDBsNi4zMS0zLjY0YS43Mi43MiAwIDAgMCAuMzMtLjYydi03LjI4YS43Mi43MiAwIDAgMC0uMzMtLjYyem0tLjg3IDcuMmwtMi4yLTEuMjd2LTMuMzRsLTMuMjUgMS44N3YzLjhsMi45LTEuNjcgMi4yIDEuMjctNS40NSAzLjEtNS40NS0zLjE1IDIuMi0xLjI3IDIuOSAxLjcydi0zLjhMMy40IDYuMzI2djMuMzRsLTIuMiAxLjI3di02LjI5bDUuNDUtMy4xNHYyLjQ5bC0yLjkgMS43Mkw3IDcuNTg2bDMuMjUtMS44OC0yLjktMS43MXYtMi40OWw1LjQ1IDMuMTR6Ii8+JiN4YTs8L3N2Zz4=;" parent="1" vertex="1">
          <mxGeometry x="560" y="290.8" width="28.000000000000004" height="32" as="geometry" />
        </mxCell>
        <mxCell id="qe19Klz4tE8ld2L98A2y-26" value="Spark Master" style="dashed=0;html=1;rounded=1;fillColor=#FFB570;strokeColor=#DFE1E6;fontSize=12;align=center;fontStyle=1;strokeWidth=2;fontColor=#42526E" parent="1" vertex="1">
          <mxGeometry x="600" y="226" width="90" height="20" as="geometry" />
        </mxCell>
        <mxCell id="qe19Klz4tE8ld2L98A2y-27" value="Spark Worker" style="dashed=0;html=1;rounded=1;fillColor=#FFB570;strokeColor=#DFE1E6;fontSize=12;align=center;fontStyle=1;strokeWidth=2;fontColor=#42526E" parent="1" vertex="1">
          <mxGeometry x="600" y="262" width="90" height="20" as="geometry" />
        </mxCell>
        <mxCell id="qe19Klz4tE8ld2L98A2y-28" value="Spark Submit" style="dashed=0;html=1;rounded=1;fillColor=#FFB570;strokeColor=#DFE1E6;fontSize=12;align=center;fontStyle=1;strokeWidth=2;fontColor=#42526E" parent="1" vertex="1">
          <mxGeometry x="600" y="296.8" width="90" height="20" as="geometry" />
        </mxCell>
        <mxCell id="qe19Klz4tE8ld2L98A2y-40" style="edgeStyle=orthogonalEdgeStyle;rounded=0;orthogonalLoop=1;jettySize=auto;html=1;exitX=1;exitY=0.5;exitDx=0;exitDy=0;" parent="1" source="qe19Klz4tE8ld2L98A2y-9" edge="1">
          <mxGeometry relative="1" as="geometry">
            <mxPoint x="360" y="266" as="targetPoint" />
          </mxGeometry>
        </mxCell>
      </root>
    </mxGraphModel>
  </diagram>
</mxfile>
